<svg width="97" height="133" viewBox="0 0 97 133" fill="none" xmlns="http://www.w3.org/2000/svg">
<circle cx="48.5" cy="48.5" r="48.5" fill="#74BFE9"/>
<path d="M44.9618 90.701C44.2045 88.3308 42.4784 86.3145 40.3384 85.3018C36.2049 83.3414 31.8956 83.6049 28.1786 84.0042C27.7035 84.0561 27.2869 84.3489 27.0806 84.7801C26.873 85.2113 26.905 85.7197 27.1631 86.1229C27.6236 86.8455 28.2997 87.9488 28.6244 88.5437C29.4509 90.0515 29.8395 91.7923 30.1389 93.3054C30.8655 96.9679 34.4548 100.46 39.2405 100.46C39.7409 100.46 40.2546 100.421 40.7789 100.342C41.5349 100.226 42.0526 99.5204 41.9368 98.7672C41.821 98.0113 41.1077 97.4909 40.3611 97.6094C36.5549 98.1883 33.4061 95.5745 32.8498 92.7678C32.5104 91.0523 32.0633 89.0667 31.0479 87.2142C30.9454 87.0265 30.8163 86.803 30.6739 86.5594C33.8519 86.3598 36.5935 86.586 39.154 87.7997C40.6126 88.4918 41.7997 89.8892 42.328 91.5421C42.5716 92.3033 42.7379 93.3387 42.525 94.5192C41.2793 93.1364 39.7835 91.6565 37.9376 90.0702C37.3587 89.5711 36.4857 89.639 35.9893 90.2179C35.4902 90.7955 35.5581 91.6685 36.137 92.1676C38.5871 94.2743 40.3903 96.1561 41.7385 97.8316C41.8237 98.0179 41.9514 98.1816 42.1138 98.316C44.6916 101.658 45.4502 104.136 45.9679 105.857C46.0384 106.092 46.1063 106.31 46.1715 106.517C44.7781 109.448 43.933 112.203 43.5511 114.287C43.4127 115.038 43.9104 115.758 44.661 115.895C44.7462 115.911 44.8287 115.918 44.9125 115.918C45.5673 115.918 46.1489 115.451 46.27 114.785C46.6373 112.772 47.4731 110.078 48.8771 107.229C48.8957 107.193 48.913 107.158 48.929 107.122C49.7927 105.385 50.88 103.597 52.2002 101.864C52.3107 101.848 52.4225 101.824 52.5302 101.779C55.6417 100.5 59.243 101.312 59.2789 101.32C60.0202 101.493 60.7641 101.031 60.9385 100.29C61.1128 99.5484 60.6524 98.8044 59.9097 98.6288C59.7886 98.6008 57.8123 98.1523 55.3343 98.3453C57.284 96.4941 59.5797 94.8332 62.2773 93.5583C62.9667 93.2322 63.2608 92.4084 62.9347 91.7177C62.6087 91.027 61.7849 90.7329 61.0955 91.059C59.5331 91.7963 58.1038 92.6586 56.7756 93.6009L56.8368 93.3919C57.0458 92.6573 56.6226 91.8921 55.8906 91.6818C55.1547 91.4715 54.3921 91.8961 54.1805 92.628L53.0227 96.6618C53.0107 96.7044 53.008 96.747 53 96.7882C51.2034 98.5702 49.6783 100.493 48.4246 102.44C47.7619 100.162 48.0613 98.155 48.5124 96.743C49.3442 94.1372 51.2207 91.928 53.5324 90.8327C57.7219 88.8511 62.1828 88.5983 67.4263 89.0215C67.0164 89.6935 66.6172 90.3723 66.3404 90.8793C64.8871 93.5317 64.2416 96.401 63.7505 98.8803C63.2328 101.495 61.7876 103.746 59.79 105.054C57.6234 106.47 54.8858 106.833 51.6625 106.124C50.9159 105.964 50.18 106.433 50.0163 107.178C49.8526 107.923 50.3251 108.661 51.0703 108.824C52.316 109.097 53.5191 109.234 54.6756 109.234C57.1589 109.234 59.4094 108.605 61.3031 107.368C63.9568 105.632 65.7907 102.808 66.4615 99.4166C66.9126 97.1396 67.4982 94.5165 68.7651 92.2062C69.2403 91.3358 70.241 89.6975 70.9397 88.6009C71.1966 88.1963 71.2285 87.6906 71.0196 87.2581C70.8133 86.8269 70.3968 86.5341 69.9216 86.4836C64.5371 85.906 58.2941 85.524 52.3493 88.3361C49.3589 89.7534 46.9381 92.5828 45.8774 95.9032C45.6418 96.6418 45.4888 97.3938 45.393 98.147C45.1547 97.7957 44.8966 97.4324 44.6184 97.0611C45.5034 95.0262 45.6285 92.8037 44.9578 90.7023L44.9618 90.701Z" fill="#272B2D"/>
<path d="M36.9264 123.748C37.1047 123.824 37.2857 123.859 37.4667 123.859C38.0043 123.859 38.5154 123.543 38.7403 123.018C39.0397 122.316 38.7124 121.505 38.0083 121.205C27.1194 116.566 20.6529 105.532 21.9212 93.7499C23.3731 80.2752 34.6546 70.2061 47.8619 69.9L44.4496 72.6482C43.856 73.1273 43.7616 73.9976 44.2407 74.5912C44.5135 74.9306 44.9141 75.1062 45.3186 75.1062C45.6221 75.1062 45.9295 75.0064 46.1837 74.8001L52.4666 69.7403C53.0601 69.2612 53.1546 68.3908 52.6755 67.7973L47.617 61.5157C47.1392 60.9208 46.2689 60.8263 45.674 61.3068C45.0804 61.7859 44.9859 62.6562 45.465 63.2498L48.5832 67.1199C33.6805 67.0626 20.8059 78.3175 19.1743 93.4532C17.7743 106.454 24.9089 118.627 36.9264 123.748Z" fill="#272B2D"/>
<path d="M58.7268 71.9121C69.6118 76.4143 76.3338 87.749 75.0709 99.4764C73.6189 112.952 62.3347 123.026 49.1262 123.326L52.5398 120.579C53.1333 120.099 53.2278 119.23 52.7487 118.636C52.2683 118.042 51.3992 117.947 50.8057 118.428L44.5228 123.487C44.238 123.718 44.0557 124.05 44.0157 124.415C43.9772 124.78 44.085 125.144 44.3125 125.43L49.3737 131.712C49.6465 132.051 50.0471 132.227 50.4504 132.227C50.7564 132.227 51.0612 132.126 51.3181 131.921C51.9116 131.44 52.0061 130.571 51.527 129.978L48.4062 126.105C48.4434 126.105 48.4794 126.108 48.5166 126.108C63.3741 126.106 76.1928 114.872 77.819 99.7745C79.2124 86.8347 71.7957 74.3275 59.7822 69.3595C59.0768 69.0694 58.269 69.4048 57.9762 70.1088C57.6848 70.8128 58.0215 71.6206 58.7268 71.9134V71.9121Z" fill="#272B2D"/>
</svg>
