<svg width="122" height="122" viewBox="0 0 122 122" fill="none" xmlns="http://www.w3.org/2000/svg">
<path d="M59.8913 40.6342L50.6733 58.9719C50.548 59.2216 50.3532 59.4299 50.1125 59.5715C49.8718 59.7131 49.5953 59.7822 49.3164 59.7703C48.9884 59.7761 48.6669 59.6786 48.3974 59.4915C48.1221 59.29 47.9359 58.9891 47.8784 58.6525L42.0125 29.7255H44.3669L49.6354 56.0117L59.8913 35.877L70.2306 56.0117L75.4681 29.7231H77.8226L71.9828 58.6525C71.9262 58.9894 71.7399 59.2907 71.4638 59.4915C71.1829 59.681 70.8501 59.7785 70.5115 59.7703C70.2325 59.7822 69.9561 59.7131 69.7154 59.5715C69.4746 59.4299 69.2799 59.2216 69.1545 58.9719L59.8913 40.6342Z" fill="#FFFFFF"/>
<path d="M52.0994 90.4704C51.8483 90.4753 51.5987 90.4299 51.3653 90.337C51.1318 90.2441 50.9193 90.1055 50.7401 89.9294C50.5644 89.7703 50.4241 89.5761 50.3281 89.3593C50.2322 89.1426 50.1827 88.908 50.183 88.6709V62.5825C50.1781 62.3437 50.2235 62.1066 50.3162 61.8865C50.4089 61.6664 50.5468 61.4683 50.721 61.3051C50.9048 61.1312 51.1214 60.9957 51.358 60.9065C51.5947 60.8173 51.8467 60.7761 52.0994 60.7855H64.8693C66.0505 60.7723 67.2229 60.9892 68.3213 61.4242C69.3371 61.8286 70.2652 62.4259 71.0543 63.1832C71.8221 63.9241 72.439 64.8072 72.8708 65.7834C73.3103 66.7769 73.5343 67.8524 73.5279 68.939C73.5288 70.1346 73.2628 71.3154 72.7494 72.3949C72.232 73.4998 71.4592 74.4655 70.4949 75.212C71.7907 75.8781 72.8861 76.8776 73.6683 78.1078C74.4084 79.3278 74.7889 80.7324 74.7658 82.1596C74.7692 83.2477 74.5521 84.3253 74.1278 85.3271C73.7076 86.3155 73.0968 87.2113 72.3304 87.9631C71.5408 88.7348 70.6138 89.3517 69.5974 89.7816C68.5054 90.2427 67.3304 90.4739 66.1454 90.4608L52.0994 90.4704ZM53.3278 74.0895H64.8622C65.5954 74.0942 66.3227 73.9583 67.0048 73.6891C67.6482 73.4373 68.2373 73.0643 68.7403 72.5903C69.2316 72.1276 69.6251 71.5708 69.8973 70.9529C70.1793 70.3177 70.3222 69.6294 70.3163 68.9342C70.3234 68.2459 70.1804 67.5643 69.8973 66.937C69.6205 66.3273 69.2275 65.7776 68.7403 65.3187C68.2362 64.8461 67.6473 64.4733 67.0048 64.2199C66.3222 63.9526 65.5951 63.8175 64.8622 63.8219H53.3278V74.0895ZM66.1382 87.4363C66.8793 87.4422 67.6134 87.292 68.2927 86.9954C68.932 86.7197 69.5141 86.3269 70.0092 85.8371C70.4889 85.3567 70.8749 84.7909 71.1472 84.1687C71.4242 83.5395 71.5669 82.8592 71.5662 82.1715C71.5722 81.4832 71.4292 80.8019 71.1472 80.1742C70.8731 79.5622 70.479 79.0116 69.9883 78.5551C69.4975 78.0986 68.9201 77.7455 68.2904 77.5168C67.6013 77.2598 66.8711 77.1313 66.1359 77.1378H53.3278V87.4459L66.1382 87.4363Z" fill="#FFFFFF"/>
<path d="M39.3438 5.59618L38.3296 11.2495C38.3155 11.3266 38.2794 11.3979 38.2258 11.455C38.1722 11.512 38.1032 11.5524 38.0273 11.5713C37.9407 11.6 37.8472 11.6 37.7607 11.5713C37.7157 11.5559 37.6743 11.5318 37.6388 11.5003C37.6032 11.4688 37.5742 11.4305 37.5535 11.3878L33.6802 4.09465L34.3134 3.90637L37.8154 10.5393L38.9653 4.32107L43.329 8.89715L42.6529 1.43243L43.2838 1.24414L44.0194 9.46916C44.0312 9.5633 44.0055 9.65829 43.948 9.73371C43.8859 9.80751 43.8029 9.8607 43.71 9.88625C43.6362 9.91135 43.5567 9.91459 43.4811 9.89556C43.4055 9.87653 43.337 9.83606 43.2838 9.77899L39.3438 5.59618Z" fill="#FFFFFF"/>
<path d="M46.8406 0.777406L47.4929 0.679688L48.7332 8.86895L48.0809 8.96667L46.8406 0.777406Z" fill="#FFFFFF"/>
<path d="M55.1491 5.07681L52.2375 5.18406L52.3541 8.40161L51.6971 8.42544L51.4066 0.548403C51.4006 0.492006 51.4076 0.43498 51.427 0.381689C51.4464 0.328399 51.4777 0.280257 51.5185 0.240948C51.5999 0.166483 51.7059 0.12487 51.8161 0.124163L55.2633 0.00261074C55.6217 -0.0132765 55.9796 0.0434701 56.3156 0.169447C56.6353 0.290834 56.9298 0.470203 57.1845 0.698555C57.4397 0.929568 57.6458 1.20962 57.7906 1.52204C57.9354 1.83446 58.0159 2.17285 58.0273 2.51707C58.0415 2.82707 57.9962 3.13693 57.894 3.4299C57.7947 3.70357 57.6444 3.9559 57.4512 4.17351C57.253 4.39268 57.0197 4.57715 56.7608 4.7193C56.4876 4.86885 56.1916 4.97194 55.8847 5.02437L58.3701 8.17757L57.5892 8.20617L55.1491 5.07681ZM52.2137 4.5477L55.4276 4.42853C55.6883 4.41977 55.9454 4.3649 56.187 4.26646C56.4152 4.17486 56.6243 4.0415 56.8036 3.87321C56.9778 3.70847 57.1163 3.50974 57.2107 3.28928C57.3117 3.05492 57.3581 2.80063 57.3464 2.54567C57.3384 2.28457 57.276 2.02803 57.1631 1.79252C57.0525 1.5669 56.9007 1.364 56.7155 1.1943C56.528 1.01903 56.308 0.882196 56.068 0.791507C55.8194 0.695156 55.5534 0.652122 55.2871 0.665188L52.0732 0.781973L52.2137 4.5477Z" fill="#FFFFFF"/>
<path d="M67.9 5.34608L62.3768 4.63106L61.9626 7.7795L67.8309 8.54933L67.7476 9.19284L61.6459 8.39202C61.5373 8.37804 61.4384 8.32252 61.3698 8.2371C61.3335 8.19685 61.3065 8.14904 61.2909 8.09711C61.2752 8.04519 61.2713 7.99044 61.2793 7.9368L62.2506 0.522132C62.2543 0.466254 62.2706 0.411939 62.2982 0.363241C62.3259 0.314542 62.3641 0.272719 62.4101 0.240894C62.5014 0.178546 62.6128 0.153007 62.722 0.169393L68.8237 0.970205L68.738 1.61133L62.872 0.841503L62.4601 3.97802L67.9857 4.70495L67.9 5.34608Z" fill="#FFFFFF"/>
<path d="M77.9273 3.73985C78.3576 4.08698 78.7186 4.51231 78.9914 4.9935C79.2589 5.46692 79.4304 5.98851 79.4961 6.52839C79.5588 7.09237 79.5015 7.66324 79.328 8.20344C79.1544 8.74364 78.8685 9.24091 78.4891 9.66252C78.1213 10.0633 77.6779 10.3873 77.1845 10.6159C76.6826 10.8509 76.1403 10.9877 75.5871 11.0187C75.0101 11.0542 74.4317 10.9798 73.8825 10.7994L71.4042 10.0129C71.3026 9.97714 71.2178 9.90497 71.1662 9.81029C71.1383 9.76426 71.1207 9.71275 71.1145 9.65927C71.1084 9.6058 71.1138 9.55163 71.1304 9.50045L73.4088 2.38609C73.4235 2.3335 73.4498 2.28485 73.4856 2.24364C73.5214 2.20243 73.5659 2.16968 73.6159 2.14775C73.7186 2.1083 73.8322 2.1083 73.9349 2.14775L76.4203 2.92473C76.9687 3.10061 77.4797 3.37701 77.9273 3.73985ZM74.0801 10.194C74.5464 10.3478 75.0375 10.4116 75.5276 10.3823C75.9932 10.3574 76.4499 10.2433 76.8726 10.0462C77.2884 9.84929 77.662 9.57326 77.9725 9.23352C78.2962 8.87799 78.5398 8.45695 78.6867 7.99893C78.8395 7.53874 78.8891 7.05047 78.8319 6.56891C78.776 6.11479 78.6321 5.67598 78.4082 5.27712C78.1764 4.87289 77.8712 4.51561 77.5083 4.22367C77.1258 3.91678 76.6899 3.68327 76.2227 3.53488L73.9682 2.81986L71.8256 9.47185L74.0801 10.194Z" fill="#FFFFFF"/>
<path d="M85.2289 15.6873C85.1688 15.6512 85.1168 15.6031 85.0758 15.5462C85.0349 15.4892 85.006 15.4245 84.9908 15.356C84.9733 15.292 84.9693 15.225 84.9791 15.1593C84.989 15.0937 85.0124 15.0308 85.0479 14.9747L88.9856 8.82084C89.0205 8.76397 89.0669 8.71507 89.1218 8.6773C89.1768 8.63953 89.2391 8.61373 89.3046 8.60157C89.4448 8.57595 89.5894 8.60679 89.7069 8.68737L92.7185 10.6131C92.9982 10.7882 93.2408 11.0166 93.4327 11.2852C93.6119 11.5336 93.7413 11.8145 93.8136 12.1123C93.8825 12.4027 93.8946 12.7038 93.8493 12.9989C93.8049 13.2998 93.6961 13.5877 93.5303 13.8426C93.3476 14.1255 93.1035 14.3634 92.8161 14.5385C92.5289 14.7207 92.2024 14.8318 91.8638 14.8627C92.0699 15.2155 92.1776 15.6171 92.1757 16.0258C92.1669 16.4251 92.0447 16.8137 91.8234 17.146C91.6615 17.4051 91.4475 17.6275 91.1949 17.799C90.9479 17.9691 90.6694 18.0882 90.3759 18.1494C90.0733 18.2122 89.7616 18.2179 89.457 18.166C89.1373 18.108 88.8328 17.9855 88.5618 17.8061L85.2289 15.6873ZM88.9975 17.0911C89.1712 17.2043 89.3666 17.2798 89.5712 17.3128C89.7641 17.344 89.961 17.3391 90.1521 17.2985C90.3378 17.2575 90.5139 17.1815 90.6711 17.0745C90.8323 16.9692 90.9687 16.8301 91.0711 16.6669C91.1769 16.506 91.246 16.3237 91.2734 16.133C91.3001 15.9473 91.2897 15.7581 91.2427 15.5764C91.1957 15.3947 91.113 15.2242 90.9996 15.0748C90.8769 14.9102 90.7243 14.7703 90.5497 14.6625L87.5405 12.7296L85.9883 15.1582L88.9975 17.0911ZM87.9881 12.0122L90.7068 13.752C90.8781 13.8682 91.0707 13.9492 91.2734 13.9904C91.4637 14.0273 91.6593 14.0273 91.8495 13.9904C92.035 13.9565 92.2115 13.8851 92.3685 13.7806C92.5295 13.6723 92.6664 13.5319 92.7709 13.3683C92.8753 13.2067 92.9443 13.0247 92.9732 12.8344C92.9996 12.6483 92.9891 12.4588 92.9423 12.2767C92.8969 12.0899 92.8161 11.9135 92.7042 11.7572C92.5833 11.5899 92.4313 11.4475 92.2566 11.3377L89.5379 9.59782L87.9881 12.0122Z" fill="#FFFFFF"/>
<path d="M100.096 22.442L96.0324 18.7239L94.0898 20.8523L98.4083 24.8063L97.8465 25.4331L93.2613 21.2455C93.2086 21.1993 93.1657 21.1431 93.1351 21.08C93.1044 21.017 93.0866 20.9485 93.0828 20.8785C93.0766 20.8126 93.0842 20.7462 93.1051 20.6834C93.126 20.6206 93.1598 20.5629 93.2042 20.5138L98.125 15.125C98.1691 15.0748 98.2233 15.0344 98.284 15.0065C98.3447 14.9786 98.4106 14.9637 98.4774 14.963C98.5478 14.9617 98.6178 14.9745 98.6832 15.0007C98.7486 15.0269 98.8081 15.066 98.8583 15.1155L103.434 19.3079L102.86 19.9347L98.5416 15.9711L96.6062 18.0923L100.67 21.8104L100.096 22.442Z" fill="#FFFFFF"/>
<path d="M99.3844 27.0155L108.05 24.9181C108.145 24.8945 108.245 24.8945 108.34 24.9181C108.447 24.947 108.541 25.0108 108.607 25.0992C108.681 25.1849 108.727 25.2915 108.738 25.4043C108.738 25.5073 108.711 25.6085 108.66 25.6975L104.448 33.5316L103.846 32.7546L105.512 29.611L103.451 26.9559L99.9891 27.7925L99.3844 27.0155ZM105.922 28.8817L107.469 25.993L104.286 26.7724L105.922 28.8817Z" fill="#FFFFFF"/>
<path d="M113.114 31.9039L108.852 34.1943C108.55 34.3562 108.287 34.5823 108.081 34.8569C107.875 35.1321 107.724 35.4445 107.636 35.7769C107.545 36.1169 107.518 36.4709 107.557 36.8208C107.637 37.5587 108.001 38.2364 108.571 38.7108C108.84 38.9364 109.15 39.1087 109.483 39.2184C109.808 39.3253 110.149 39.369 110.49 39.3471C110.833 39.3287 111.167 39.2334 111.469 39.0683L115.728 36.7779L116.147 37.5572L111.892 39.8477C111.49 40.0666 111.045 40.1974 110.588 40.2314C110.14 40.2656 109.689 40.2122 109.262 40.0741C108.826 39.9294 108.422 39.7029 108.071 39.4067C107.692 39.091 107.378 38.704 107.148 38.2675C106.692 37.4187 106.581 36.427 106.836 35.498C106.955 35.0597 107.158 34.6486 107.433 34.2872C107.706 33.9272 108.052 33.6305 108.45 33.4173L112.709 31.1245L113.114 31.9039Z" fill="#FFFFFF"/>
<path d="M110.838 46.8381L117.908 44.4952L116.882 41.3968L117.689 41.1299L120.018 48.1775L119.213 48.4445L118.189 45.3461L111.119 47.6889L110.838 46.8381Z" fill="#FFFFFF"/>
<path d="M116.713 56.0311L121.846 58.2381L122.001 59.2558L115.906 56.596L113.266 56.9964L113.135 56.1217L115.773 55.7213L120.808 51.374L120.96 52.3798L116.713 56.0311Z" fill="#FFFFFF"/>
<path d="M5.47632 67.421L0.238839 65.0686C0.167854 65.0365 0.107634 64.9846 0.0654056 64.919C0.0231771 64.8535 0.000734472 64.7772 0.00077143 64.6992C-0.00465553 64.6078 0.0186547 64.5169 0.0674303 64.4394C0.122895 64.3575 0.208491 64.301 0.305498 64.2821L8.3117 62.292L8.34027 62.9522L1.05303 64.7349L6.79997 67.3567L1.303 70.4979L8.70689 71.6443L8.73546 72.3045L0.586417 71.027C0.492744 71.0136 0.407665 70.965 0.34835 70.8912C0.29221 70.8143 0.261418 70.7218 0.260265 70.6266C0.253771 70.5491 0.269601 70.4713 0.305884 70.4024C0.342166 70.3336 0.397382 70.2766 0.465003 70.2381L5.47632 67.421Z" fill="#FFFFFF"/>
<path d="M9.35919 74.4614L9.48774 75.1073L1.37679 76.7471L1.24585 76.1012L9.35919 74.4614Z" fill="#FFFFFF"/>
<path d="M6.40715 82.8893L5.45488 80.1293L2.41238 81.1709L2.19812 80.5464L9.64725 77.9962C9.69863 77.9756 9.75397 77.9668 9.80919 77.9706C9.86442 77.9743 9.9181 77.9904 9.96626 78.0177C10.0618 78.0732 10.1331 78.1625 10.1662 78.2679L11.2828 81.5355C11.4003 81.8744 11.4481 82.2335 11.4232 82.5914C11.4074 82.9319 11.3283 83.2666 11.1899 83.5781C11.042 83.8809 10.8356 84.1514 10.5829 84.3741C10.3232 84.611 10.0165 84.7905 9.68296 84.9008C9.39162 85.0053 9.08264 85.0514 8.77354 85.0367C8.4834 85.021 8.19894 84.9498 7.93554 84.827C7.67104 84.7005 7.42962 84.5305 7.22134 84.3241C6.99913 84.1045 6.81419 83.8501 6.67379 83.5709L4.37644 86.8624L4.12409 86.1235L6.40715 82.8893ZM6.06672 79.922L7.10707 82.9679C7.18977 83.2187 7.31633 83.4527 7.48084 83.6591C7.63522 83.8505 7.8232 84.012 8.03553 84.1358C8.24314 84.2557 8.47337 84.3312 8.71164 84.3574C8.9647 84.3874 9.22124 84.3589 9.46156 84.274C9.70933 84.1896 9.93706 84.0549 10.1305 83.8784C10.5132 83.5335 10.7471 83.0532 10.7828 82.5389C10.8021 82.2723 10.7664 82.0046 10.6781 81.7524L9.63773 78.7065L6.06672 79.922Z" fill="#FFFFFF"/>
<path d="M12.535 94.1669L9.76156 89.3334L7.01426 90.9184L9.95916 96.0521L9.3997 96.3763L6.32625 91.0471C6.27087 90.9512 6.25466 90.8376 6.28102 90.7301C6.29103 90.6773 6.3124 90.6274 6.34365 90.5838C6.37489 90.5401 6.41526 90.5039 6.46195 90.4774L12.935 86.7427C12.9819 86.7128 13.0348 86.6936 13.09 86.6866C13.1451 86.6796 13.2011 86.6849 13.254 86.7022C13.3559 86.7401 13.4405 86.8138 13.4921 86.9095L16.5679 92.2387L16.0061 92.5605L13.0517 87.4315L10.3139 89.0093L13.0945 93.8428L12.535 94.1669Z" fill="#FFFFFF"/>
<path d="M21.2197 98.4666C21.4148 98.9842 21.5102 99.5341 21.5006 100.087C21.489 100.631 21.3709 101.167 21.1531 101.665C20.9208 102.183 20.5815 102.645 20.1576 103.022C19.7337 103.399 19.2348 103.681 18.6938 103.851C18.1718 104.011 17.6235 104.068 17.0797 104.017C16.5282 103.96 15.9926 103.798 15.5013 103.541C14.9864 103.277 14.526 102.918 14.1444 102.483L12.416 100.535C12.3426 100.453 12.3042 100.345 12.3089 100.235C12.3077 100.181 12.3184 100.127 12.3402 100.078C12.362 100.029 12.3944 99.9846 12.435 99.9491L18.0225 94.994C18.0618 94.9549 18.1094 94.9252 18.1617 94.9071C18.214 94.8889 18.2698 94.8828 18.3248 94.8892C18.4336 94.9046 18.5328 94.9598 18.6034 95.0441L20.3317 96.9913C20.7181 97.4225 21.0194 97.9231 21.2197 98.4666ZM14.6276 102.061C14.9516 102.431 15.3416 102.737 15.7775 102.964C16.1908 103.18 16.6418 103.314 17.1059 103.36C17.5646 103.402 18.0272 103.354 18.4677 103.219C18.9256 103.077 19.3473 102.837 19.7032 102.516C20.0669 102.2 20.3563 101.808 20.5507 101.367C20.7342 100.947 20.8337 100.495 20.8436 100.037C20.8505 99.5719 20.7698 99.1094 20.6055 98.674C20.435 98.2131 20.178 97.7892 19.8484 97.4251L18.2772 95.6518L13.0564 100.29L14.6276 102.061Z" fill="#FFFFFF"/>
<path d="M24.7956 112.1C24.7362 112.063 24.6846 112.016 24.6438 111.959C24.6029 111.903 24.5736 111.839 24.5575 111.771C24.5389 111.707 24.5338 111.641 24.5424 111.575C24.551 111.509 24.5732 111.446 24.6075 111.39L28.4451 105.181C28.4793 105.123 28.5251 105.074 28.5796 105.035C28.6342 104.996 28.6963 104.97 28.7618 104.957C28.8312 104.943 28.9028 104.943 28.9722 104.957C29.0417 104.971 29.1077 104.998 29.1665 105.038L32.2042 106.918C32.4873 107.09 32.7347 107.315 32.9327 107.581C33.1142 107.827 33.2467 108.105 33.3231 108.401C33.3969 108.69 33.4139 108.991 33.3731 109.287C33.3317 109.588 33.227 109.876 33.066 110.133C32.8918 110.421 32.655 110.665 32.3733 110.848C32.0873 111.036 31.7608 111.152 31.421 111.187C31.6327 111.536 31.747 111.935 31.7519 112.343C31.7481 112.743 31.6318 113.133 31.4162 113.47C31.2568 113.731 31.0462 113.956 30.7973 114.133C30.5514 114.306 30.274 114.429 29.9807 114.495C29.6796 114.562 29.3687 114.572 29.0641 114.524C28.7365 114.473 28.4227 114.356 28.1428 114.178L24.7956 112.1ZM28.5832 113.451C28.9288 113.665 29.3449 113.733 29.7402 113.639C29.9264 113.595 30.1019 113.514 30.2568 113.401C30.4164 113.293 30.5513 113.152 30.6526 112.987C30.754 112.823 30.8195 112.639 30.8449 112.448C30.8689 112.265 30.8568 112.08 30.8092 111.902C30.7594 111.718 30.6736 111.547 30.5568 111.397C30.4313 111.233 30.2762 111.095 30.0997 110.989L27.0525 109.099L25.536 111.552L28.5832 113.451ZM27.4976 108.386L30.2354 110.083C30.4098 110.194 30.6038 110.27 30.8068 110.307C30.9971 110.343 31.1925 110.343 31.3829 110.307C31.5669 110.268 31.7415 110.194 31.8971 110.088C32.0558 109.978 32.1902 109.837 32.2922 109.673C32.3941 109.509 32.4614 109.326 32.4899 109.135C32.5118 108.949 32.4989 108.761 32.4518 108.58C32.401 108.393 32.3154 108.217 32.1995 108.062C32.0763 107.896 31.9219 107.755 31.7448 107.648L29.0022 105.948L27.4976 108.386Z" fill="#FFFFFF"/>
<path d="M41.296 116.032L36.1394 114.107L35.1324 116.809L40.608 118.857L40.3175 119.648L34.5206 117.484C34.4546 117.461 34.3938 117.424 34.3419 117.377C34.29 117.33 34.248 117.273 34.2182 117.21C34.1875 117.151 34.1696 117.086 34.1655 117.019C34.1614 116.953 34.1712 116.886 34.1944 116.824L36.7441 109.986C36.7661 109.922 36.8013 109.864 36.8472 109.816C36.8931 109.767 36.9489 109.728 37.0108 109.702C37.0756 109.675 37.1452 109.661 37.2155 109.661C37.2858 109.661 37.3554 109.675 37.4202 109.702L43.2267 111.871L42.9315 112.667L37.456 110.617L36.4537 113.311L41.6102 115.236L41.296 116.032Z" fill="#FFFFFF"/>
<path d="M43.7242 120.632L48.6475 113.191C48.7044 113.111 48.7794 113.046 48.8665 113.001C48.9638 112.947 49.0766 112.929 49.1855 112.951C49.297 112.962 49.402 113.009 49.4855 113.084C49.5573 113.158 49.6068 113.25 49.6283 113.351L51.8685 121.964L50.8972 121.805L49.9949 118.361L46.662 117.817L44.6837 120.792L43.7242 120.632ZM49.7831 117.546L48.9522 114.373L47.1381 117.114L49.7831 117.546Z" fill="#FFFFFF"/>
<path d="M55.599 113.794L55.73 118.632C55.7351 118.976 55.8164 119.314 55.9681 119.621C56.1194 119.93 56.3297 120.205 56.587 120.432C57.1272 120.917 57.8324 121.176 58.5577 121.157C59.2829 121.137 59.9732 120.84 60.4866 120.327C60.7278 120.084 60.9216 119.798 61.0579 119.483C61.194 119.168 61.259 118.827 61.2484 118.485L61.1174 113.644L61.9983 113.62L62.1364 118.456C62.1519 118.913 62.0708 119.369 61.8983 119.793C61.7282 120.209 61.4782 120.588 61.1627 120.908C60.8374 121.237 60.4519 121.5 60.0271 121.683C59.576 121.88 59.0907 121.986 58.5987 121.995C58.1114 122.013 57.6256 121.932 57.1703 121.757C56.7328 121.594 56.3292 121.352 55.98 121.042C55.6434 120.737 55.3685 120.371 55.1705 119.962C54.971 119.557 54.8614 119.113 54.8491 118.661L54.7206 113.823L55.599 113.794Z" fill="#FFFFFF"/>
<path d="M69.1713 120.742L67.5286 113.47L64.348 114.185L64.1624 113.356L71.3925 111.718L71.5805 112.548L68.4 113.263L70.0426 120.537L69.1713 120.742Z" fill="#FFFFFF"/>
<path d="M78.4963 113.98L79.2772 108.446L80.2175 108.031L79.2486 114.617L80.3247 117.062L79.5152 117.412L78.4392 114.969L72.9303 111.242L73.8588 110.832L78.4963 113.98Z" fill="#FFFFFF"/>
</svg>
