<svg width="107" height="131" viewBox="0 0 107 131" fill="none" xmlns="http://www.w3.org/2000/svg">
<circle cx="53.5" cy="48.5" r="48.5" fill="#74BFE9"/>
<g clip-path="url(#clip0_376_127)">
<path d="M45.0511 118.184C45.7469 118.178 46.4544 118.467 47.1029 118.903C48.4531 119.805 48.4944 121.727 47.439 122.966L44.4851 126.432C43.4297 127.671 41.6433 127.812 40.4051 126.763C39.1729 125.707 39.0255 123.921 40.0808 122.683L43.0347 119.216C43.6538 118.485 44.3495 118.184 45.0452 118.178L45.0511 118.184ZM38.6953 112.63C39.4264 112.612 40.1398 112.889 40.6527 113.402C41.7966 114.558 42.0383 116.238 40.9829 117.476L38.029 120.943C36.9855 122.181 35.1872 122.323 33.9549 121.268C32.7168 120.218 32.5694 118.432 33.6247 117.193L36.5786 113.727C37.1977 112.996 37.9642 112.659 38.6953 112.63V112.63ZM31.4256 108.114C32.1625 108.09 32.876 108.373 33.3653 108.874C34.5209 110.018 34.7509 111.71 33.6955 112.948L31.573 115.442C30.5176 116.681 28.7311 116.822 27.4929 115.773C26.2548 114.717 26.1133 112.937 27.1628 111.704L29.2912 109.204C29.9103 108.473 30.6768 108.143 31.4197 108.114H31.4256ZM25.1758 104.323C25.618 104.323 26.0602 104.464 26.5319 104.741C27.5342 105.348 27.5342 107.105 26.4022 108.42L25.1051 109.947C23.9848 111.262 22.3752 111.415 21.485 110.655C20.5888 109.894 20.5003 108.291 21.6206 106.976L22.9236 105.449C23.7077 104.694 24.4329 104.317 25.1758 104.317V104.323ZM4.93498 64.0001C3.60249 64.0354 3.13081 65.7924 4.26873 66.5059L24.2266 79.0761C21.7149 91.3456 17.8943 99.1106 6.96319 109.859L2.19335 106.858C0.625025 105.673 -0.99047 108.243 0.760633 109.145L6.53868 112.783C7.06932 113.125 7.74735 113.055 8.20134 112.618C9.79915 111.085 11.2496 109.605 12.5761 108.167L18.3188 110.472C18.5665 111.321 19.0145 112.111 19.7397 112.73C20.9013 113.715 22.387 113.992 23.8021 113.703C23.8374 115.248 24.486 116.769 25.7418 117.836C27.039 118.939 28.7016 119.322 30.264 119.068C30.264 120.66 30.9067 122.235 32.2038 123.337C33.5009 124.434 35.1577 124.817 36.726 124.558C36.726 126.149 37.2979 127.824 38.6599 128.826C41.4133 130.854 44.8094 130.112 46.6371 128.083C48.8835 128.62 51.407 129.439 53.9776 129.445C56.6308 129.451 59.3901 128.29 61.1058 125.2C65.6752 126.421 69.7965 124.174 70.9462 120.843C73.8588 121.344 77.2195 121.474 79.401 120.141C81.0991 119.098 82.125 117.241 82.1309 115.159C83.4339 115.313 84.6484 115.065 85.6449 114.523C86.9302 113.821 87.8676 112.701 88.4631 111.492C88.64 111.132 88.7815 110.761 88.8994 110.384L94.4416 108.155C95.7682 109.605 97.2186 111.079 98.8105 112.612C99.2586 113.043 99.9426 113.113 100.473 112.777L106.239 109.14C107.991 108.238 106.375 105.667 104.807 106.852L100.049 109.853C89.1117 99.1106 85.2852 91.3456 82.7853 79.0702L102.743 66.5059C103.905 65.7807 103.392 63.9942 102.024 64.0001C101.764 64.0001 101.511 64.0767 101.293 64.2182L80.4446 77.3485C79.967 77.6374 79.7312 78.1917 79.8314 78.7518C81.954 89.6004 85.0612 97.2946 92.5313 106.003L89.1353 107.365C88.9348 106.198 88.3216 105.042 87.1601 104.452C80.763 101.174 70.5394 97.1118 64.9323 94.2582C63.0574 93.303 63.0102 91.6639 62.8334 90.1487L62.232 84.8482L63.1753 84.1171C64.7496 83.0499 62.9808 80.7387 61.5363 81.971L57.0848 85.4142C56.9374 85.5262 56.8136 85.6795 56.7192 85.8505C55.6757 87.8316 55.0094 89.5532 54.0248 90.9387C53.0461 92.3361 51.8374 93.6391 49.2137 94.5117C47.6336 95.0305 47.0086 94.7122 47.2326 93.5094L48.9543 83.84C49.3316 81.7057 49.1429 81.6585 50.8174 80.1373L58.8418 72.8499C59.7969 71.9832 60.2745 71.9655 60.9643 72.0952C61.6424 72.2249 62.5504 72.7143 63.6411 73.2332L74.8906 78.6574C76.5297 79.4652 77.7207 76.983 76.058 76.2165L64.8144 70.8099C63.8711 70.35 62.8157 69.6838 61.4596 69.4303C60.1035 69.1767 58.4409 69.5482 57.0199 70.8453L54.7087 72.9502L51.1829 71.8948C49.2019 71.3052 47.1678 70.975 45.4639 71.7945L30.9539 78.8107C29.2971 79.5949 30.5058 82.0653 32.1331 81.234L46.643 74.2237C47.9932 73.5692 49.2491 74.1352 50.4047 74.4831L52.3562 75.0668L48.9896 78.1268C47.0734 79.872 46.6489 81.2281 46.2657 83.3506L44.55 93.0259C43.9368 96.5104 47.1796 98.1908 50.1924 97.0116C53.1699 95.8501 54.9858 94.2346 56.2299 92.4776C57.4032 90.8031 58.0694 89.0756 58.9538 87.3599L59.7262 86.7585L60.1507 90.4376C60.4809 93.303 61.3417 95.3961 63.6647 96.6284C69.543 99.7473 79.7902 103.704 85.9279 106.846C86.2521 107.005 86.4526 107.312 86.5175 107.949C86.5882 108.591 86.429 109.476 86.0399 110.266C85.6507 111.056 85.0376 111.734 84.3418 112.117C83.6402 112.506 82.8502 112.648 81.7712 112.323C75.8399 110.531 63.9713 106.935 63.9713 106.935C62.2084 106.345 61.3889 109.051 63.193 109.529C63.193 109.529 73.1218 112.524 79.3598 114.411C79.6958 116.044 79.1652 117.07 77.9447 117.836C76.6476 118.644 74.413 118.98 71.7363 118.243L59.0658 114.758C57.2381 114.098 56.4421 116.981 58.3465 117.353L68.3402 120.106C67.8273 121.639 65.9052 123.614 62.2615 122.694L54.4906 120.719C52.7631 120.301 52.1027 122.883 53.8243 123.343L58.3819 124.499C57.1791 126.338 55.8172 126.739 53.9835 126.733C52.4034 126.727 50.5167 126.244 48.6005 125.76L49.5026 124.705C51.4954 122.364 51.2065 118.821 48.8599 116.822C47.5687 115.719 45.906 115.342 44.3377 115.596C44.3377 114.016 43.6951 112.43 42.398 111.333C40.8591 110.018 38.8014 109.712 37.0031 110.313C36.8322 108.998 36.2013 107.73 35.1105 106.811C33.613 105.531 31.6142 105.201 29.8513 105.732C29.7216 104.57 29.2264 103.474 28.283 102.666C26.1015 100.814 22.7762 101.428 20.8482 103.692L19.5452 105.213C18.9556 105.909 18.5606 106.716 18.3247 107.548L14.4629 106.003C21.933 97.2946 25.0343 89.5945 27.1569 78.7459C27.263 78.1917 27.0213 77.6374 26.5437 77.3426L5.70145 64.2182C5.47741 64.0708 5.21209 63.9942 4.93498 64.0001Z" fill="#272B2D"/>
<path fill-rule="evenodd" clip-rule="evenodd" d="M5.40664 92.4716C6.85115 92.4716 7.98907 93.6095 7.98907 95.0541C7.98907 96.4986 6.85115 97.6483 5.40664 97.6483C3.96213 97.6483 2.81241 96.4986 2.81241 95.0541C2.81241 93.6095 3.96213 92.4716 5.40664 92.4716V92.4716ZM5.40664 89.7654C2.49993 89.7654 0.112061 92.1532 0.112061 95.0541C0.112061 97.9549 2.49403 100.349 5.40664 100.349C8.31925 100.349 10.6894 97.9549 10.6894 95.0541C10.6894 92.1532 8.31335 89.7654 5.40664 89.7654V89.7654Z" fill="#272B2D"/>
</g>
<defs>
<clipPath id="clip0_376_127">
<rect width="107" height="66.023" fill="white" transform="translate(0 64)"/>
</clipPath>
</defs>
</svg>
