<svg width="97" height="134" viewBox="0 0 97 134" fill="none" xmlns="http://www.w3.org/2000/svg">
<circle cx="48.5" cy="48.5" r="48.5" fill="#74BFE9"/>
<path d="M48.57 68.5599C51.99 65.2699 55.8099 62.9199 60.3499 61.7999C78.1499 57.4099 94.13 74.0299 89.26 91.7199C87.51 98.0699 84.06 103.29 79.77 108.06C70.97 117.83 60.52 125.63 49.58 132.79C49.1 133.1 48.07 133.14 47.61 132.83C35.32 124.74 23.55 116 14.28 104.38C9.80995 98.7699 6.88995 92.4599 6.99995 85.1499C7.15995 75.2799 11.72 67.8299 20.59 63.5799C29.67 59.2199 38.42 60.4699 46.4 66.6799C47.09 67.2099 47.72 67.8199 48.56 68.5599H48.57ZM48.57 72.7399C47.97 72.0499 47.52 71.5499 47.08 71.0399C41.38 64.4499 31.98 62.0499 23.7 65.0599C15.42 68.0699 9.70995 75.9699 9.61995 84.6699C9.53995 91.5399 12.18 97.4399 16.38 102.71C25.14 113.68 36.2299 121.97 47.75 129.74C48.15 130.01 49.09 129.92 49.5299 129.62C59.63 122.88 69.27 115.56 77.5 106.56C81.66 102.01 85.1 97.0599 86.72 90.9299C90.8 75.4499 77.67 61.2099 61.9 64.1999C56.44 65.2299 52.1399 68.1499 48.57 72.7399Z" fill="#272B2D"/>
</svg>
