<?xml version="1.0" encoding="UTF-8"?><svg xmlns="http://www.w3.org/2000/svg" viewBox="0 0 512.46 511.88"><defs><style>.d{fill:#fff;}</style></defs><g id="a"/><g id="b"><g id="c"><g><g><path class="d" d="M251.57,170.48l-38.72,76.94c-1.23,2.23-3.13,3.35-5.7,3.35-1.45,0-2.74-.4-3.85-1.18-1.12-.78-1.84-1.95-2.18-3.52l-24.64-121.36h9.89l22.13,110.3,43.08-84.48,43.42,84.48,21.96-110.3h9.89l-24.47,121.36c-.33,1.57-1.06,2.74-2.18,3.52-1.12,.78-2.46,1.18-4.02,1.18-2.57,0-4.47-1.12-5.7-3.35l-38.89-76.94Z"/><path class="d" d="M218.84,379.58c-2.24,0-4.13-.75-5.7-2.26-1.57-1.51-2.35-3.27-2.35-5.28v-109.46c0-2.12,.75-3.91,2.26-5.36,1.51-1.45,3.44-2.18,5.78-2.18h53.64c5.25,0,10.08,.9,14.5,2.68,4.42,1.79,8.24,4.25,11.48,7.38,3.24,3.13,5.78,6.76,7.63,10.89,1.84,4.14,2.77,8.55,2.77,13.24,0,5.03-1.09,9.86-3.27,14.5-2.18,4.64-5.34,8.58-9.47,11.82,5.81,3.13,10.25,7.18,13.33,12.15,3.07,4.97,4.61,10.64,4.61,17.01,0,4.69-.89,9.14-2.68,13.33-1.79,4.19-4.3,7.88-7.54,11.06-3.24,3.18-7.07,5.73-11.48,7.62-4.42,1.9-9.25,2.85-14.5,2.85h-59Zm5.2-68.73h48.44c3.24,0,6.26-.56,9.05-1.67,2.79-1.12,5.22-2.65,7.29-4.61,2.06-1.95,3.69-4.25,4.86-6.87,1.18-2.62,1.76-5.45,1.76-8.47s-.59-5.81-1.76-8.38c-1.17-2.57-2.79-4.83-4.86-6.79-2.07-1.95-4.5-3.49-7.29-4.61-2.79-1.11-5.81-1.68-9.05-1.68h-48.44v43.08Zm53.81,55.99c3.24,0,6.26-.61,9.05-1.84,2.79-1.23,5.2-2.85,7.21-4.86,2.01-2.01,3.6-4.36,4.78-7.04,1.18-2.68,1.76-5.47,1.76-8.38s-.59-5.81-1.76-8.38c-1.17-2.57-2.77-4.8-4.78-6.7-2.01-1.9-4.42-3.38-7.21-4.44-2.79-1.06-5.81-1.59-9.05-1.59h-53.81v43.25h53.81Z"/></g><g><path class="d" d="M165.26,23.47l-4.26,23.72c-.15,.7-.57,1.15-1.26,1.35-.39,.12-.77,.11-1.13,0-.36-.12-.65-.38-.87-.77l-16.27-30.6,2.65-.79,14.71,27.83,4.83-26.09,18.37,19.21-2.89-31.34,2.65-.79,3.09,34.5c.03,.45-.07,.82-.3,1.12-.24,.3-.57,.51-.99,.63-.69,.2-1.29,.06-1.79-.45l-16.56-17.55Z"/><path class="d" d="M196.75,3.25l2.74-.42,5.21,34.36-2.74,.41-5.21-34.36Z"/><path class="d" d="M231.65,21.29l-12.23,.45,.5,13.5-2.76,.1-1.22-33.05c-.02-.53,.14-.95,.47-1.26,.33-.31,.75-.47,1.25-.49L232.13,0c1.56-.06,3.03,.18,4.42,.71,1.38,.53,2.6,1.27,3.65,2.21,1.05,.95,1.89,2.07,2.52,3.38,.63,1.31,.97,2.73,1.03,4.26,.05,1.38-.14,2.65-.56,3.82-.43,1.17-1.04,2.21-1.86,3.12-.81,.91-1.78,1.67-2.9,2.29-1.12,.62-2.35,1.05-3.68,1.29l10.44,13.23-3.28,.12-10.25-13.14Zm-12.33-2.22l13.5-.5c1.12-.04,2.19-.27,3.19-.68,1-.41,1.87-.96,2.59-1.64,.73-.68,1.3-1.5,1.72-2.46,.42-.95,.61-1.99,.57-3.12-.04-1.12-.3-2.18-.77-3.16-.47-.98-1.1-1.84-1.88-2.56s-1.68-1.28-2.71-1.68c-1.03-.4-2.13-.58-3.28-.54l-13.5,.5,.58,15.84Z"/><path class="d" d="M285.21,22.42l-23.21-3.04-1.73,13.21,24.65,3.23-.35,2.7-25.62-3.36c-.46-.06-.85-.28-1.17-.65-.31-.37-.44-.79-.38-1.26l4.08-31.11c.07-.53,.29-.92,.67-1.17,.38-.25,.82-.34,1.31-.28l25.62,3.36-.35,2.7-24.65-3.23-1.73,13.16,23.21,3.04-.35,2.7Z"/><path class="d" d="M327.33,15.68c1.86,1.52,3.35,3.27,4.47,5.25s1.83,4.13,2.12,6.44c.29,2.31,.06,4.66-.71,7.04-.76,2.35-1.93,4.39-3.52,6.11-1.59,1.72-3.42,3.07-5.49,4.05-2.07,.98-4.31,1.54-6.7,1.69-2.4,.15-4.79-.16-7.17-.92l-10.41-3.34c-.45-.14-.79-.43-1.03-.85-.24-.42-.29-.86-.15-1.3l9.6-29.88c.16-.51,.45-.85,.87-1.03,.42-.18,.87-.19,1.34-.04l10.41,3.34c2.38,.76,4.5,1.91,6.36,3.42Zm-16.16,27.08c2.02,.65,4.05,.92,6.08,.79,2.03-.12,3.91-.59,5.65-1.41,1.74-.82,3.28-1.96,4.62-3.42,1.34-1.46,2.33-3.19,2.97-5.18,.65-2.02,.85-4.01,.61-5.96-.24-1.95-.84-3.76-1.78-5.42-.94-1.67-2.2-3.14-3.78-4.42-1.58-1.28-3.38-2.24-5.4-2.89l-9.47-3.04-8.97,27.91,9.47,3.04Z"/><path class="d" d="M358.04,65.81c-.53-.34-.86-.8-1-1.39-.14-.59-.06-1.12,.24-1.6l16.5-25.81c.32-.5,.77-.81,1.34-.92,.57-.11,1.14,0,1.69,.36l12.65,8.08c1.24,.79,2.24,1.73,3.01,2.82,.77,1.09,1.3,2.24,1.6,3.47,.29,1.23,.34,2.47,.16,3.72-.19,1.25-.64,2.43-1.34,3.54-.76,1.19-1.74,2.16-2.96,2.93-1.21,.77-2.55,1.22-4.01,1.36,.9,1.61,1.33,3.24,1.31,4.87-.03,1.64-.52,3.2-1.48,4.71-.71,1.11-1.59,2.02-2.64,2.74-1.05,.72-2.2,1.21-3.45,1.47-1.24,.26-2.53,.29-3.86,.07-1.33-.22-2.61-.72-3.85-1.51l-13.91-8.89Zm15.83,5.89c.76,.49,1.57,.8,2.41,.93,.84,.13,1.66,.11,2.43-.06,.78-.17,1.51-.48,2.19-.94,.68-.46,1.24-1.03,1.68-1.71,.46-.71,.74-1.46,.85-2.24,.11-.78,.07-1.55-.12-2.3-.19-.75-.53-1.46-1.03-2.13-.5-.67-1.13-1.25-1.89-1.74l-12.69-8.11-6.52,10.2,12.69,8.11Zm-4.25-21.31l11.42,7.3c.76,.49,1.56,.81,2.39,.97,.83,.16,1.63,.16,2.41,.01,.78-.15,1.51-.45,2.18-.89,.67-.44,1.24-1.02,1.69-1.73s.74-1.46,.85-2.24c.11-.78,.07-1.56-.12-2.33-.19-.77-.54-1.5-1.02-2.19-.49-.68-1.12-1.27-1.88-1.76l-11.42-7.3-6.49,10.16Z"/><path class="d" d="M420.45,94.15l-17.07-15.6-8.16,8.93,18.14,16.58-2.4,2.63-19.22-17.56c-.46-.42-.71-.94-.75-1.54-.04-.61,.13-1.12,.51-1.53l20.66-22.61c.4-.44,.89-.67,1.48-.68,.59-.01,1.12,.2,1.61,.64l19.22,17.56-2.41,2.63-18.14-16.58-8.13,8.9,17.07,15.6-2.41,2.63Z"/><path class="d" d="M417.46,113.34l36.4-8.8c.37-.09,.77-.08,1.21,.04,.44,.11,.82,.36,1.12,.76,.35,.44,.53,.87,.54,1.27,.02,.4-.09,.81-.32,1.23l-17.69,32.88-2.53-3.26,7.04-13.19-8.66-11.15-14.58,3.49-2.53-3.26Zm27.46,7.82l6.5-12.12-13.38,3.27,6.88,8.85Z"/><path class="d" d="M475.13,133.85l-17.89,9.61c-1.3,.7-2.38,1.62-3.25,2.78s-1.49,2.44-1.87,3.85c-.38,1.41-.49,2.87-.33,4.39,.16,1.51,.61,2.97,1.37,4.38s1.72,2.59,2.9,3.56c1.17,.97,2.45,1.67,3.83,2.12,1.38,.45,2.79,.63,4.23,.55,1.45-.08,2.81-.47,4.11-1.17l17.89-9.61,1.75,3.26-17.89,9.61c-1.74,.93-3.56,1.47-5.47,1.61-1.91,.14-3.77-.08-5.57-.65-1.8-.58-3.48-1.51-5.04-2.8-1.56-1.29-2.85-2.89-3.88-4.79-1.01-1.87-1.61-3.81-1.8-5.82-.19-2.01-.03-3.94,.48-5.8,.51-1.85,1.35-3.55,2.52-5.08,1.17-1.53,2.59-2.75,4.27-3.65l17.89-9.61,1.75,3.26Z"/><path class="d" d="M465.57,196.51l29.7-9.83-4.31-13,3.38-1.12,9.79,29.57-3.38,1.12-4.31-13-29.7,9.83-1.18-3.56Z"/><path class="d" d="M490.25,235.08l21.56,9.26,.65,4.27-25.6-11.16-11.08,1.68-.55-3.66,11.08-1.68,21.14-18.24,.64,4.22-17.84,15.32Z"/></g><g><path class="d" d="M22.98,282.87l-21.98-9.9c-.64-.32-.98-.83-1.01-1.55-.02-.41,.08-.77,.28-1.09,.2-.32,.52-.54,.96-.65l33.63-8.35,.12,2.77-30.57,7.52,24.14,11.02-23.09,13.16,31.1,4.81,.12,2.76-34.22-5.38c-.44-.07-.78-.26-1.01-.57-.23-.3-.36-.67-.38-1.11-.03-.72,.26-1.26,.87-1.63l21.04-11.8Z"/><path class="d" d="M39.31,312.41l.55,2.71-34.07,6.86-.55-2.71,34.07-6.86Z"/><path class="d" d="M26.91,347.77l-3.96-11.58-12.78,4.37-.9-2.62,31.29-10.7c.5-.17,.95-.14,1.34,.09,.39,.23,.67,.58,.83,1.05l4.69,13.71c.51,1.48,.71,2.96,.6,4.43-.11,1.47-.46,2.85-1.06,4.13-.6,1.28-1.44,2.41-2.51,3.39-1.07,.98-2.33,1.71-3.78,2.21-1.3,.45-2.58,.63-3.82,.56-1.25-.07-2.42-.36-3.52-.88s-2.11-1.22-3.03-2.11c-.92-.89-1.68-1.95-2.29-3.16l-9.65,13.81-1.06-3.11,9.62-13.6Zm-1.43-12.45l4.37,12.78c.36,1.07,.89,2.02,1.57,2.86,.68,.84,1.46,1.51,2.32,2.01s1.81,.81,2.85,.93c1.03,.12,2.08,0,3.15-.36,1.06-.36,2-.92,2.8-1.65,.8-.74,1.44-1.58,1.91-2.54,.47-.95,.74-1.98,.83-3.08,.08-1.1-.06-2.2-.43-3.3l-4.37-12.78-15,5.13Z"/><path class="d" d="M52.65,395.09l-11.69-20.28-11.54,6.65,12.41,21.54-2.36,1.36-12.9-22.39c-.23-.41-.3-.85-.19-1.32,.1-.48,.36-.83,.77-1.06l27.19-15.67c.46-.27,.91-.32,1.33-.17,.43,.15,.77,.44,1.02,.87l12.9,22.39-2.36,1.36-12.41-21.54-11.5,6.63,11.69,20.28-2.36,1.36Z"/><path class="d" d="M89.13,413.13c.83,2.25,1.22,4.52,1.17,6.8-.05,2.28-.53,4.49-1.46,6.62-.92,2.14-2.32,4.04-4.19,5.7-1.85,1.64-3.89,2.8-6.14,3.47-2.24,.68-4.51,.91-6.79,.69-2.28-.21-4.49-.86-6.63-1.95-2.14-1.09-4.04-2.57-5.7-4.44l-7.26-8.17c-.31-.35-.46-.77-.46-1.26,0-.49,.19-.89,.54-1.2l23.46-20.84c.4-.35,.82-.5,1.27-.44,.45,.06,.84,.28,1.17,.65l7.26,8.17c1.66,1.87,2.91,3.93,3.74,6.19Zm-27.69,15.09c1.41,1.59,3.02,2.85,4.83,3.77,1.8,.93,3.67,1.48,5.58,1.66s3.82-.02,5.72-.59c1.89-.57,3.62-1.56,5.19-2.95,1.59-1.41,2.78-3.02,3.56-4.82,.78-1.8,1.19-3.66,1.23-5.58,.04-1.91-.3-3.82-1.01-5.72-.71-1.9-1.77-3.65-3.18-5.24l-6.6-7.44-21.92,19.47,6.6,7.44Z"/><path class="d" d="M104.15,470.33c-.53-.33-.87-.79-1.02-1.38-.15-.59-.08-1.12,.22-1.6l16.12-26.05c.31-.5,.76-.82,1.33-.94,.57-.12,1.14-.01,1.7,.33l12.76,7.9c1.25,.77,2.27,1.7,3.06,2.77,.79,1.08,1.33,2.22,1.65,3.45s.38,2.46,.21,3.72c-.17,1.26-.6,2.44-1.29,3.56-.74,1.2-1.71,2.19-2.91,2.97-1.2,.78-2.53,1.25-3.99,1.42,.92,1.6,1.38,3.22,1.38,4.85,0,1.64-.47,3.21-1.41,4.73-.69,1.12-1.56,2.04-2.6,2.78-1.04,.73-2.18,1.24-3.42,1.52-1.24,.28-2.53,.32-3.86,.12-1.33-.2-2.62-.68-3.87-1.46l-14.04-8.69Zm15.92,5.66c.77,.48,1.58,.78,2.43,.89,.84,.12,1.66,.09,2.43-.1s1.5-.51,2.17-.97c.67-.47,1.23-1.04,1.65-1.74,.44-.72,.72-1.47,.82-2.25,.1-.78,.05-1.55-.15-2.3-.2-.75-.55-1.45-1.06-2.12-.51-.66-1.15-1.23-1.92-1.71l-12.8-7.92-6.37,10.29,12.8,7.92Zm-4.56-21.24l11.53,7.13c.77,.48,1.57,.79,2.4,.93,.83,.15,1.63,.14,2.41-.02,.78-.16,1.5-.47,2.17-.92,.67-.45,1.22-1.04,1.67-1.75,.44-.72,.72-1.47,.82-2.25,.1-.78,.05-1.56-.16-2.33-.21-.77-.56-1.49-1.06-2.17-.5-.68-1.14-1.25-1.91-1.73l-11.53-7.13-6.34,10.25Z"/><path class="d" d="M173.46,486.83l-21.67-8.08-4.23,11.34,23.03,8.59-1.25,3.34-24.39-9.1c-.59-.22-1.01-.6-1.27-1.15-.26-.55-.3-1.09-.1-1.61l10.71-28.7c.21-.56,.58-.95,1.12-1.18,.54-.23,1.11-.24,1.73,0l24.39,9.1-1.25,3.34-23.03-8.59-4.21,11.29,21.67,8.08-1.25,3.34Z"/><path class="d" d="M183.66,506.13l20.69-31.22c.21-.31,.51-.58,.92-.8,.4-.22,.85-.29,1.34-.21,.56,.09,.98,.28,1.26,.56,.29,.28,.49,.66,.6,1.12l9.4,36.13-4.07-.67-3.82-14.45-13.93-2.28-8.31,12.47-4.07-.67Zm25.45-12.95l-3.48-13.31-7.58,11.5,11.06,1.81Z"/><path class="d" d="M233.54,477.44l.55,20.3c.04,1.47,.38,2.85,1.03,4.15,.64,1.3,1.51,2.43,2.6,3.4,1.09,.97,2.35,1.73,3.77,2.27,1.42,.54,2.93,.79,4.52,.75,1.59-.04,3.09-.37,4.48-.99,1.39-.62,2.6-1.44,3.62-2.47,1.02-1.03,1.82-2.21,2.39-3.54,.57-1.33,.84-2.73,.8-4.2l-.55-20.3,3.7-.1,.55,20.3c.05,1.97-.29,3.84-1.02,5.61-.73,1.77-1.76,3.33-3.09,4.68s-2.91,2.43-4.77,3.25c-1.85,.82-3.86,1.25-6.02,1.31-2.13,.06-4.13-.28-6.01-1.01-1.88-.73-3.54-1.74-4.96-3.03-1.43-1.29-2.56-2.8-3.41-4.53-.84-1.73-1.29-3.55-1.34-5.45l-.55-20.3,3.7-.1Z"/><path class="d" d="M290.55,506.59l-6.9-30.51-13.36,3.02-.79-3.48,30.38-6.87,.79,3.48-13.36,3.02,6.9,30.51-3.66,.83Z"/><path class="d" d="M329.72,478.22l3.29-23.24,3.95-1.74-4.07,27.63,4.52,10.26-3.39,1.49-4.52-10.26-23.14-15.63,3.91-1.72,19.46,13.21Z"/></g></g></g></g></svg>