<svg width="97" height="133" viewBox="0 0 97 133" fill="none" xmlns="http://www.w3.org/2000/svg">
<circle cx="48.5" cy="48.5" r="48.5" fill="#74BFE9"/>
<path d="M57.195 64.9868C53.558 65.0021 50.5186 68.0171 50.4942 71.6358C50.4698 75.2727 53.4605 78.2695 57.1401 78.2908C60.8959 78.3152 63.8409 75.4556 63.8622 71.7668C63.8835 67.9988 60.9051 64.9685 57.195 64.9868ZM57.2346 76.3641C54.7957 76.4251 52.613 74.2636 52.5825 71.7608C52.552 69.1176 54.5945 66.9958 57.1858 66.9836C59.7771 66.9684 61.8898 69.1024 61.8654 71.715C61.841 74.2331 59.7832 76.3031 57.2346 76.3641ZM57.195 64.9868C53.558 65.0021 50.5186 68.0171 50.4942 71.6358C50.4698 75.2727 53.4605 78.2695 57.1401 78.2908C60.8959 78.3152 63.8409 75.4556 63.8622 71.7668C63.8835 67.9988 60.9051 64.9685 57.195 64.9868ZM57.2346 76.3641C54.7957 76.4251 52.613 74.2636 52.5825 71.7608C52.552 69.1176 54.5945 66.9958 57.1858 66.9836C59.7771 66.9684 61.8898 69.1024 61.8654 71.715C61.841 74.2331 59.7832 76.3031 57.2346 76.3641ZM57.195 64.9868C53.558 65.0021 50.5186 68.0171 50.4942 71.6358C50.4698 75.2727 53.4605 78.2695 57.1401 78.2908C60.8959 78.3152 63.8409 75.4556 63.8622 71.7668C63.8835 67.9988 60.9051 64.9685 57.195 64.9868ZM57.2346 76.3641C54.7957 76.4251 52.613 74.2636 52.5825 71.7608C52.552 69.1176 54.5945 66.9958 57.1858 66.9836C59.7771 66.9684 61.8898 69.1024 61.8654 71.715C61.841 74.2331 59.7832 76.3031 57.2346 76.3641ZM57.195 64.9868C53.558 65.0021 50.5186 68.0171 50.4942 71.6358C50.4698 75.2727 53.4605 78.2695 57.1401 78.2908C60.8959 78.3152 63.8409 75.4556 63.8622 71.7668C63.8835 67.9988 60.9051 64.9685 57.195 64.9868ZM57.2346 76.3641C54.7957 76.4251 52.613 74.2636 52.5825 71.7608C52.552 69.1176 54.5945 66.9958 57.1858 66.9836C59.7771 66.9684 61.8898 69.1024 61.8654 71.715C61.841 74.2331 59.7832 76.3031 57.2346 76.3641ZM68.8649 71.3797C68.6515 65.2886 63.978 60.3012 57.9815 60.0176C53.2532 59.7921 49.4851 61.7279 47.1194 65.8983C44.7324 70.1054 45.0251 74.2941 47.6499 78.3457C47.9151 78.7572 48.5218 79.0285 48.1072 79.7724C47.5615 80.7571 47.1865 81.8393 46.6439 83.0984C46.1957 82.5923 45.9091 82.2387 45.589 81.9186C39.1322 75.4526 32.6692 68.9926 26.2062 62.5327C24.8283 61.1578 24.7551 61.1548 23.4351 62.4748C19.3774 66.5264 15.3503 70.6145 11.2438 74.6203C10.1921 75.6477 10.2104 76.3123 11.2469 77.3366C16.8166 82.824 22.3193 88.3785 27.8586 93.8934C28.2793 94.3141 28.8097 94.625 29.5688 95.1982C28.6146 95.4055 28.1878 95.5335 27.7519 95.5854C24.2856 96 20.8224 96.6249 17.344 96.753C12.0182 96.9481 8.98179 102.039 9.00008 106.545C9.00008 107.575 9.36286 108.06 10.439 107.929C11.9481 107.749 13.4632 107.63 14.9722 107.45C22.3559 106.575 29.7395 105.691 37.236 104.795C37.0469 105.298 36.9128 105.71 36.7421 106.103C33.4313 113.77 30.1145 121.434 26.7976 129.098C26.1087 130.69 26.2824 131.144 27.8098 131.519C32.4406 132.653 37.3213 131.153 39.5285 125.833C45.2568 112.032 51.296 98.3626 57.2041 84.6379C57.5303 83.8819 57.8199 83.2783 58.8381 83.1411C64.7981 82.3302 69.0722 77.2665 68.8649 71.3797ZM13.5059 76.7574C12.9084 76.1659 12.8535 75.8428 13.4815 75.2209C17.2434 71.5169 20.9566 67.7671 24.7764 63.9412C26.4379 65.6118 28.0567 67.2824 29.7273 68.9042C30.2303 69.392 29.9895 69.6481 29.6298 69.9956C28.8615 70.7334 28.1177 71.4925 27.3586 72.2394C26.8159 72.7729 26.6208 73.3795 27.2214 73.9405C27.8098 74.4862 28.3341 74.1021 28.7914 73.6326C29.0749 73.343 29.3371 73.0198 29.6603 72.782C30.4041 72.2302 30.9986 70.7303 31.7333 71.1175C32.9771 71.7729 33.8886 73.0716 34.8947 74.1417C35.1904 74.4618 34.7483 74.6691 34.5624 74.8672C34.0746 75.3855 33.5502 75.8672 33.0686 76.3885C32.6052 76.8915 32.4741 77.4616 33.0106 77.989C33.5228 78.495 34.0502 78.2756 34.477 77.8396C35.1507 77.1537 35.7879 76.4312 36.5622 75.5928C37.6231 76.7147 38.5407 77.7268 39.5132 78.681C39.9614 79.1231 40.0345 79.3913 39.5163 79.8486C38.681 80.5833 37.9249 81.4095 37.1354 82.1991C36.6323 82.7021 36.5074 83.2478 37.0591 83.7782C37.5774 84.2782 38.0865 84.0709 38.5255 83.6349C39.501 82.6746 40.4583 81.6961 41.6107 80.5376C42.007 81.0254 42.3637 81.5131 42.7722 81.9521C43.4611 82.696 44.5647 83.3209 44.7568 84.1623C44.8726 84.6776 43.6136 85.5129 42.9612 86.1896C42.4795 86.6866 42.26 87.2566 42.8027 87.778C43.4093 88.3602 43.9946 88.0127 44.6958 87.6652C43.8818 89.5431 43.0313 91.4058 42.2692 93.305C42.0161 93.9361 41.5344 93.9574 41.0619 94.0184C38.2999 94.3629 35.5318 94.6677 32.7698 95.0031C32.1174 95.0793 31.6479 94.8964 31.1632 94.4116C25.2977 88.5066 19.414 82.6198 13.5059 76.7574ZM36.3061 102.914C33.093 103.329 29.8737 103.679 26.6544 104.051C21.926 104.597 17.1946 105.109 12.4724 105.701C11.1524 105.865 10.939 105.515 11.2987 104.274C12.3566 100.643 14.3778 99.0272 18.0848 98.6522C23.8771 98.0638 29.6511 97.323 35.4343 96.6554C37.239 96.445 39.0438 96.256 41.0833 96.0304C40.1992 98.0791 39.3364 99.9479 38.5895 101.862C38.1383 103.027 37.1415 102.807 36.3061 102.914ZM44.1837 109.761C42.1442 114.63 39.8699 119.407 37.9707 124.327C35.983 129.479 33.0503 130.171 28.7609 129.674C30.206 126.327 31.6388 123.029 33.0594 119.724C36.1232 112.612 39.1779 105.496 42.2448 98.387C42.2935 98.2711 42.4246 98.1888 42.5191 98.0913C42.4429 99.5515 42.8118 100.762 44.269 101.439C45.8146 102.158 46.9609 101.475 48.034 100.451C47.0554 103.679 45.4793 106.664 44.1837 109.761ZM44.58 98.7742C44.5647 98.1462 44.8818 97.7163 45.5555 97.6919C46.1408 97.6706 46.4975 97.948 46.5158 98.4754C46.528 99.2253 46.2232 99.6064 45.5525 99.643C44.9458 99.6765 44.5922 99.3595 44.58 98.7742ZM57.762 81.2753C56.7163 81.3058 56.2834 81.7265 55.9024 82.635C53.7897 87.6438 51.6161 92.6252 49.4363 97.6035C49.229 98.0791 49.2108 98.701 48.6285 98.9662C48.409 96.3201 46.4305 94.9269 44.3147 95.9085C43.9184 96.0945 43.6593 96.5396 43.1532 96.506C45.4153 91.1863 47.6377 85.8513 49.9698 80.562C50.4851 79.3944 50.4851 78.6078 49.6345 77.5744C46.9548 74.3094 46.8725 69.6268 49.2809 66.1544C51.6771 62.6973 56.128 61.1792 60.1551 62.4413C64.0939 63.679 66.9352 67.5903 66.9047 71.7425C66.8711 76.7757 62.7342 81.1382 57.762 81.2753ZM57.195 64.9868C53.558 65.0021 50.5186 68.0171 50.4942 71.6358C50.4698 75.2727 53.4605 78.2695 57.1401 78.2908C60.8959 78.3152 63.8409 75.4556 63.8622 71.7668C63.8835 67.9988 60.9051 64.9685 57.195 64.9868ZM57.2346 76.3641C54.7957 76.4251 52.613 74.2636 52.5825 71.7608C52.552 69.1176 54.5945 66.9958 57.1858 66.9836C59.7771 66.9684 61.8898 69.1024 61.8654 71.715C61.841 74.2331 59.7832 76.3031 57.2346 76.3641ZM57.195 64.9868C53.558 65.0021 50.5186 68.0171 50.4942 71.6358C50.4698 75.2727 53.4605 78.2695 57.1401 78.2908C60.8959 78.3152 63.8409 75.4556 63.8622 71.7668C63.8835 67.9988 60.9051 64.9685 57.195 64.9868ZM57.2346 76.3641C54.7957 76.4251 52.613 74.2636 52.5825 71.7608C52.552 69.1176 54.5945 66.9958 57.1858 66.9836C59.7771 66.9684 61.8898 69.1024 61.8654 71.715C61.841 74.2331 59.7832 76.3031 57.2346 76.3641ZM57.195 64.9868C53.558 65.0021 50.5186 68.0171 50.4942 71.6358C50.4698 75.2727 53.4605 78.2695 57.1401 78.2908C60.8959 78.3152 63.8409 75.4556 63.8622 71.7668C63.8835 67.9988 60.9051 64.9685 57.195 64.9868ZM57.2346 76.3641C54.7957 76.4251 52.613 74.2636 52.5825 71.7608C52.552 69.1176 54.5945 66.9958 57.1858 66.9836C59.7771 66.9684 61.8898 69.1024 61.8654 71.715C61.841 74.2331 59.7832 76.3031 57.2346 76.3641Z" fill="#272B2D"/>
<path d="M74.6908 88.613C70.9837 88.6222 68.112 91.5366 68.1242 95.2833C68.1364 98.9416 71.1392 101.96 74.764 101.954C78.3826 101.948 81.419 98.9325 81.4708 95.2955C81.5227 91.622 78.4619 88.6069 74.6908 88.613ZM74.6847 99.8928C72.1605 99.8684 70.0875 97.771 70.0905 95.2467C70.0966 92.6707 72.2855 90.5154 74.8432 90.5733C77.3766 90.6282 79.4039 92.7073 79.4009 95.2528C79.3978 97.8899 77.337 99.9172 74.6847 99.8928Z" fill="#272B2D"/>
<path d="M57.1951 64.9869C53.5581 65.0021 50.5187 68.0172 50.4943 71.6358C50.4699 75.2728 53.4606 78.2695 57.1402 78.2909C60.896 78.3153 63.8409 75.4557 63.8623 71.7669C63.8836 67.9989 60.9052 64.9686 57.1951 64.9869ZM57.2347 76.3642C54.7958 76.4251 52.613 74.2637 52.5826 71.7608C52.5521 69.1177 54.5946 66.9959 57.1859 66.9837C59.7772 66.9685 61.8899 69.1025 61.8655 71.7151C61.8411 74.2332 59.7833 76.3032 57.2347 76.3642Z" fill="#272B2D"/>
<path d="M54.0215 94.4968C54.241 93.8962 54.3233 93.4969 54.5214 93.1615C54.8751 92.564 54.747 91.9086 56.1677 92.0854C58.5547 92.3841 61.0728 91.6525 63.5361 91.3446C63.9933 91.2866 63.9568 90.8111 64.097 90.5306C66.6121 85.4181 71.0965 82.9976 76.7516 83.7384C81.4799 84.3572 85.5894 88.4484 86.318 93.6066C86.9186 97.8655 85.4827 101.536 82.1293 104.267C78.7332 107.033 74.8676 107.6 70.7185 106.2C70.5295 106.136 70.3466 106.051 70.1606 105.972C69.9838 105.895 69.81 105.813 69.5234 105.859C73.2488 109.578 76.9742 113.297 80.6995 117.02C82.3183 118.638 82.3214 118.669 80.7209 120.269C76.7364 124.254 72.7275 128.217 68.7796 132.241C67.8193 133.22 67.1791 133.278 66.1761 132.263C59.9326 125.94 53.6617 119.641 47.3115 113.425C46.1897 112.325 46.3939 111.551 47.092 110.566C53.8202 117.309 60.5149 124.016 67.3102 130.827C71.3252 126.799 75.1877 122.919 79.0655 119.053C79.41 118.709 79.3703 118.507 79.035 118.221C78.7271 117.959 78.4619 117.648 78.1692 117.364C77.4406 116.66 76.7882 115.572 75.9498 115.401C75.4133 115.291 74.5963 116.538 73.9134 117.184C73.4073 117.666 72.8342 117.846 72.3251 117.297C71.816 116.745 72.0599 116.187 72.5568 115.712C73.2153 115.081 73.8646 114.438 74.5201 113.794C74.4012 113.642 74.3188 113.517 74.2182 113.413C73.2153 112.407 72.319 110.779 71.1697 110.572C69.9899 110.359 69.1912 112.243 68.1577 113.13C67.6425 113.572 67.1364 113.877 66.5755 113.3C66.045 112.752 66.2249 112.203 66.731 111.715C66.9139 111.538 67.0968 111.361 67.2645 111.172C67.9809 110.352 69.6119 109.444 69.3466 108.837C68.7948 107.578 67.4352 106.676 66.4261 105.609C66.0847 105.249 65.9139 105.536 65.7097 105.737C65.1701 106.273 64.6396 106.822 64.0939 107.353C63.6092 107.825 63.0391 108.081 62.5117 107.493C62.024 106.953 62.1794 106.374 62.6824 105.883C62.8623 105.706 63.0727 105.545 63.2129 105.341C63.6092 104.761 64.8073 104.353 64.3531 103.667C63.7556 102.761 63.0605 101.649 61.46 101.969C60.2588 102.21 59.0607 102.179 58.2285 103.301C57.8078 103.868 56.9816 104.024 56.7072 103.393C56.2469 102.338 55.5396 102.661 54.8324 102.743C53.3264 102.914 51.8265 103.115 50.29 103.307C50.5644 101.859 51.107 101.094 52.7136 100.966C56.6463 100.655 60.5606 100.085 64.4811 99.591C65.5451 99.4568 66.2157 99.7739 66.8529 100.716C69.4655 104.578 74.4621 105.956 78.6814 104.103C82.8671 102.262 85.2541 97.4935 84.2054 93.067C83.1506 88.607 79.0106 85.4425 74.4042 85.5767C70.6087 85.6864 67.0937 88.1923 65.728 91.8872C65.4079 92.7561 65.0268 93.2347 64.0756 93.3353C60.7771 93.6859 57.4846 94.0974 54.0306 94.5029L54.0215 94.4968Z" fill="#272B2D"/>
<path d="M48.6286 98.9663C48.4092 96.3201 46.4306 94.9269 44.3149 95.9085C43.9186 96.0945 43.6595 96.5396 43.1534 96.5061C42.94 97.0335 42.7297 97.5609 42.5193 98.0913C42.4431 99.5516 42.812 100.762 44.2692 101.439C45.8148 102.158 46.9611 101.475 48.0342 100.451C48.9762 100.256 48.528 99.4998 48.6286 98.9663ZM45.5526 99.643C44.946 99.6766 44.5923 99.3595 44.5801 98.7742C44.5649 98.1462 44.882 97.7163 45.5557 97.692C46.141 97.6706 46.4977 97.948 46.516 98.4754C46.5282 99.2254 46.2233 99.6065 45.5526 99.643Z" fill="#272B2D"/>
<path d="M23.118 71.855C21.3224 71.8336 19.8195 73.2543 19.7494 75.0468C19.6792 76.812 21.3163 78.4673 23.1058 78.4399C24.8893 78.4125 26.377 76.9156 26.38 75.1413C26.3861 73.3732 24.9015 71.8794 23.118 71.855ZM23.051 76.4065C22.2401 76.376 21.7614 75.8638 21.8193 75.0194C21.8742 74.2207 22.4352 73.8853 23.1577 73.9097C23.9351 73.9341 24.3222 74.4097 24.2948 75.3273C24.2308 75.9584 23.7979 76.4309 23.051 76.4065Z" fill="#272B2D"/>
</svg>
