<svg width="97" height="133" viewBox="0 0 97 133" fill="none" xmlns="http://www.w3.org/2000/svg">
<circle cx="48.5" cy="48.5" r="48.5" fill="#74BFE9"/>
<path d="M56.3724 63.4102C56.3616 65.4261 54.8121 66.9353 52.7344 66.8755C50.8869 66.8223 49.372 65.3908 49.3648 63.4203C49.3576 61.4325 50.9323 59.8938 52.9351 59.9061C54.8366 59.9176 56.3825 61.4944 56.3717 63.4102H56.3724Z" fill="#272B2D"/>
<path d="M40.8773 58.9942C40.8636 57.2828 42.2469 55.8822 43.9576 55.8765C45.6827 55.8707 47.1335 57.2799 47.1357 58.9654C47.1371 60.5401 45.705 62.145 43.995 62.132C42.2814 62.1183 40.8917 60.7409 40.8773 58.9942Z" fill="#272B2D"/>
<path d="M76.2566 111.257C78.1033 111.32 79.2001 112.831 79.1454 114.324C79.0864 115.945 77.642 117.295 76.0666 117.182C74.1177 117.041 73.1698 115.631 73.1432 114.091C73.1151 112.482 74.6502 111.175 76.2566 111.257ZM76.1925 113.443C75.7564 113.435 75.4332 113.732 75.4217 114.152C75.4095 114.602 75.7492 114.964 76.1839 114.964C76.5819 114.962 76.9388 114.614 76.9482 114.217C76.9583 113.788 76.6301 113.452 76.1925 113.443Z" fill="#272B2D"/>
<path d="M79.267 82.8065C77.6262 82.8051 76.271 81.4514 76.276 79.8184C76.2811 78.212 77.6405 76.8806 79.2757 76.8806C80.8827 76.8806 82.2379 78.2164 82.2473 79.8112C82.2566 81.4521 80.9079 82.808 79.267 82.8065ZM79.2879 80.5669C79.755 80.5618 80.0357 80.2696 80.0249 79.799C80.0155 79.37 79.6773 79.0692 79.2195 79.0821C78.8129 79.0937 78.5099 79.4103 78.5128 79.8213C78.5164 80.2617 78.8388 80.5719 79.2872 80.5669H79.2879Z" fill="#1799D2"/>
<path d="M26.8477 102.613C25.6206 102.605 24.513 101.483 24.5217 100.257C24.531 98.9515 25.7019 97.7676 26.9988 97.7705C28.1726 97.7734 29.3522 98.8975 29.3608 100.118C29.3702 101.423 28.1575 102.622 26.8477 102.613Z" fill="#272B2D"/>
<path d="M35.8575 71.8593C34.6175 71.8651 33.4783 70.7366 33.4833 69.5074C33.4891 68.2184 34.6866 67.0281 35.9777 67.0273C37.194 67.0273 38.3153 68.1472 38.3203 69.3685C38.3254 70.679 37.1645 71.8529 35.8575 71.8593Z" fill="#1799D2"/>
<path d="M75.8506 87.0419C75.8175 87.6004 75.5505 88.1624 75.0798 88.6461C74.6991 89.0369 74.2032 89.3578 73.7246 89.3686C72.078 89.4075 71.0503 88.2107 71.0488 86.9354C71.0474 85.6874 72.227 84.528 73.4749 84.5244C74.7077 84.5215 75.8585 85.6853 75.8513 87.0419H75.8506Z" fill="#1799D2"/>
<path d="M43.7309 70.0031C43.6906 68.83 44.7305 67.7375 45.923 67.6993C47.1508 67.6605 48.1879 68.6508 48.252 69.893C48.3102 71.0257 47.2509 72.2658 46.0555 72.2672C44.7586 72.2687 43.7769 71.3453 43.7316 70.0038L43.7309 70.0031Z" fill="#272B2D"/>
<path d="M84.5329 92.4165C82.6603 91.0109 79.724 91.6752 78.7711 93.9825C78.6963 94.1639 78.6567 94.3294 78.3659 94.3287C74.1579 94.3136 69.9492 94.3143 65.7404 94.3229C65.4691 94.3236 65.346 94.2401 65.3266 93.9818C65.2431 92.8684 64.9862 91.7932 64.6256 90.7396C64.586 90.4661 64.4767 90.2149 64.3766 89.9609C63.6944 88.2235 62.771 86.628 61.554 85.2081C61.4079 85.0375 61.3611 84.9375 61.5634 84.7547C62.0333 84.33 62.4716 83.8694 62.9214 83.4218C65.3662 80.9878 67.811 78.5538 70.2514 76.1162C70.3702 75.9975 70.4457 75.978 70.6041 76.0644C71.4173 76.5106 72.304 76.6654 73.2079 76.5178C74.9568 76.2328 76.2112 75.2555 76.7574 73.5621C77.3116 71.8478 76.9805 70.2544 75.6477 68.9848C73.7808 67.2072 70.5731 67.3403 69.069 69.5671C68.7437 70.0478 68.4565 70.2141 67.9398 69.9852C67.8909 69.9636 67.8218 69.9866 67.762 69.9888C67.7296 69.973 67.6973 69.9564 67.6642 69.9399C66.2104 69.6182 64.7559 69.2943 63.3014 68.9762C63.1697 68.9474 63.0617 68.9539 63.0351 68.7639C62.7782 66.938 61.2071 65.9074 59.4892 66.0874C57.1589 66.3321 56.0872 68.3983 56.7537 70.4177C57.1416 71.5937 58.0585 72.2824 59.2726 72.4962C60.5831 72.7265 61.6778 72.3148 62.4853 71.2288C62.5846 71.095 62.6688 71.0626 62.8408 71.1C63.5382 71.2511 64.2233 71.4577 64.9329 71.5498C64.9855 71.5556 65.038 71.562 65.0905 71.5685C65.1294 71.5923 65.1654 71.6283 65.2071 71.6376C66.1125 71.8456 67.0179 72.0565 67.9261 72.2501C68.1377 72.2954 68.2464 72.3602 68.2579 72.6013C68.2831 73.1691 68.4479 73.7067 68.7286 74.2004C68.8157 74.353 68.7746 74.4286 68.666 74.5329C68.3385 74.8496 68.0211 75.1763 67.6987 75.498C65.1236 78.0752 62.5464 80.6503 59.9757 83.2318C59.8253 83.3836 59.7425 83.3858 59.5792 83.2476C58.5162 82.3473 57.3561 81.5931 56.088 81.0123C55.898 80.9252 55.8404 80.8115 55.8433 80.6064C55.8548 79.7427 55.8677 78.8791 55.839 78.0169C55.8267 77.6585 55.9138 77.5599 56.2816 77.5664C57.2243 77.583 57.9311 76.8978 57.9188 76.0378C57.9073 75.1526 57.22 74.5156 56.27 74.5149C54.7832 74.5142 53.297 74.5164 51.8101 74.5164C48.4168 74.5164 45.0235 74.5135 41.6301 74.5171C40.9839 74.5171 40.3692 74.9654 40.1685 75.5484C39.9547 76.1695 40.1505 76.8158 40.6895 77.2483C41.0472 77.5355 41.4697 77.5952 41.9101 77.57C42.0828 77.5599 42.2181 77.5542 42.216 77.7917C42.2066 78.7381 42.2023 79.6852 42.2066 80.6316C42.2073 80.8252 42.1418 80.923 41.9612 81.0072C40.809 81.547 39.7352 82.2156 38.7485 83.0188C38.6168 83.1267 38.5621 83.1296 38.4434 83.0072C37.8748 82.4236 37.2947 81.8514 36.7183 81.275C33.7186 78.2746 30.7197 75.2728 27.7142 72.2774C27.5516 72.1148 27.5386 72.0039 27.638 71.7967C28.4296 70.1443 27.8035 68.0845 26.2547 67.1942C26.2331 67.1842 26.2108 67.1734 26.1892 67.1626C25.6595 66.7545 25.0406 66.5804 24.3922 66.5249C23.1687 66.4206 22.1798 66.9143 21.363 67.7945C20.2856 68.9546 20.1122 70.9863 20.978 72.2479C21.1313 72.3976 21.1636 72.6337 21.3457 72.7646C21.3853 72.8093 21.4256 72.8546 21.4652 72.8999C21.5235 72.9482 21.5818 72.9957 21.6408 73.0446C21.6573 73.0755 21.6667 73.1158 21.6919 73.1367C22.8966 74.1126 24.2245 74.3753 25.6775 73.7852C25.9143 73.6887 26.041 73.7139 26.213 73.8874C27.7409 75.4268 29.2767 76.9575 30.8103 78.4912C32.8096 80.4912 34.8075 82.4927 36.8118 84.4876C36.9622 84.6373 36.9299 84.7086 36.8046 84.8532C36.4441 85.2685 36.0885 85.691 35.7647 86.135C34.0475 88.492 33.0248 91.1246 32.6887 94.0199C32.6599 94.2653 32.5901 94.3215 32.3498 94.3215C28.5246 94.3128 24.7002 94.3136 20.8758 94.32C20.68 94.32 20.6174 94.2531 20.5627 94.0732C20.3878 93.4953 20.1122 92.962 19.6926 92.5237C19.5343 92.3596 19.5595 92.2488 19.6588 92.0818C20.8412 90.0868 22.0215 88.0911 23.1932 86.0904C23.2961 85.9148 23.4105 85.863 23.5969 85.8925C23.9078 85.9421 24.2223 85.9256 24.5282 85.8723C25.9215 85.6291 26.9593 84.5092 27.181 83.0317C27.363 81.8133 26.5922 80.3379 25.4422 79.7845C24.069 79.1238 22.6678 79.3462 21.6293 80.3624C20.485 81.4829 20.3216 83.2073 21.2255 84.5315C21.3644 84.7359 21.3587 84.8604 21.2378 85.0656C20.0848 87.0224 18.9434 88.9857 17.8056 90.9512C17.6897 91.1512 17.5961 91.2211 17.3342 91.1649C15.7796 90.8303 14.3734 91.2362 13.2759 92.3366C12.2244 93.3916 11.812 94.7324 12.079 96.2546C12.4662 98.4618 14.613 100.109 16.8167 99.8271C17.047 99.7976 17.1226 99.8501 17.2054 100.039C17.9279 101.689 18.657 103.336 19.391 104.981C19.4637 105.144 19.4421 105.229 19.3097 105.363C18.2547 106.431 17.9416 107.711 18.3295 109.146C18.739 110.658 19.8552 111.496 21.2831 111.831C22.1568 112.037 23.1082 111.829 23.8826 111.32C25.3681 110.345 25.9906 108.883 25.6509 107.259C25.3098 105.633 23.7653 104.214 21.8042 104.304C21.6307 104.313 21.5048 104.318 21.4134 104.107C20.6937 102.444 19.9582 100.786 19.2226 99.1304C19.1514 98.9707 19.1478 98.8713 19.2996 98.7418C19.915 98.2164 20.331 97.5507 20.5692 96.7814C20.6268 96.5957 20.6987 96.5396 20.888 96.5396C24.7131 96.5446 28.539 96.5439 32.3649 96.5374C32.5534 96.5374 32.5966 96.5921 32.6117 96.7756C32.6621 97.3578 32.7089 97.9401 32.8039 98.5194C33.2868 101.465 34.4872 104.081 36.3886 106.375C36.5628 106.585 36.5304 106.679 36.3548 106.853C34.4743 108.72 32.6038 110.597 30.7305 112.47C29.6955 113.503 28.6585 114.534 27.6286 115.572C27.4839 115.719 27.381 115.757 27.1752 115.658C26.6757 115.42 26.128 115.399 25.5919 115.47C23.8207 115.703 22.5037 117.536 22.8196 119.323C23.0802 120.797 24.7578 122.379 26.6513 121.94C28.5045 121.511 29.8316 119.667 29.1104 117.669C29.0104 117.392 29.0608 117.255 29.2508 117.066C31.0788 115.251 32.8967 113.426 34.719 111.605C35.8122 110.512 36.9083 109.422 38 108.327C38.0943 108.232 38.1425 108.177 38.2786 108.298C39.3602 109.254 40.5506 110.05 41.8583 110.664C42.031 110.745 42.0526 110.813 41.9792 110.984C41.2422 112.708 40.5132 114.435 39.7841 116.162C39.7287 116.293 39.6524 116.359 39.4999 116.387C38.275 116.612 37.4747 117.652 37.5445 118.912C37.6301 120.475 39.2278 121.548 40.6787 121C42.0951 120.464 42.8198 118.884 42.0202 117.588C41.8403 117.297 41.8288 117.088 41.954 116.785C42.3038 115.938 42.7169 115.114 42.9652 114.227C43.302 113.613 43.5208 112.948 43.795 112.306C44.1167 111.555 44.1087 111.552 44.8932 111.767C45.492 111.95 46.1073 112.051 46.727 112.13C47.022 112.142 47.3106 112.237 47.61 112.206C47.7281 112.223 47.8461 112.256 47.9641 112.254C48.1915 112.249 48.2268 112.355 48.2261 112.563C48.2196 116.53 48.2196 120.496 48.229 124.462C48.2297 124.689 48.139 124.761 47.9533 124.841C47.3265 125.107 46.7723 125.473 46.352 126.03C45.5424 127.1 45.3185 128.285 45.7244 129.549C46.09 130.689 46.8443 131.501 48.0152 131.876C48.0562 131.944 48.1239 131.935 48.1879 131.935C48.4197 132.076 48.6737 132.112 48.9386 132.096C48.9926 132.15 49.0588 132.14 49.125 132.132C49.4373 132.204 49.7446 132.137 50.0512 132.088C52.0347 131.769 53.4942 129.59 53.0135 127.643C52.9811 127.511 53.0099 127.467 53.089 127.421C54.7256 126.461 56.365 125.507 57.9995 124.543C58.134 124.463 58.1966 124.507 58.2988 124.588C60.0002 125.934 62.214 125.727 63.608 124.056C64.5227 122.959 64.7458 121.69 64.237 120.356C63.7167 118.992 62.6911 118.121 61.2453 117.924C58.7285 117.581 56.4528 119.732 56.9804 122.356C57.0092 122.499 56.9595 122.569 56.8393 122.639C55.2517 123.57 53.6655 124.505 52.0822 125.445C51.9404 125.529 51.8389 125.549 51.7036 125.429C51.4136 125.175 51.0775 124.986 50.7162 124.854C50.5003 124.776 50.447 124.656 50.447 124.432C50.455 120.474 50.4557 116.517 50.447 112.559C50.4463 112.3 50.4931 112.196 50.7752 112.219C50.9724 112.235 51.1761 112.173 51.3762 112.142C54.6788 111.639 57.5864 110.296 60.0635 108.044C60.1801 107.939 60.2326 107.901 60.3665 108.038C61.2107 108.904 62.0643 109.76 62.9272 110.609C63.0545 110.734 63.0625 110.826 63.0034 110.977C62.7875 111.534 62.6954 112.11 62.8199 112.701C63.0718 113.898 63.7469 114.746 64.9041 115.185L64.9056 115.177C64.9315 115.259 64.9963 115.246 65.0582 115.242C65.2604 115.309 65.4626 115.376 65.6656 115.444C65.8556 115.45 66.0463 115.467 66.237 115.463C68.1017 115.42 69.6368 113.513 69.2777 111.689C69.2914 111.641 69.2914 111.6 69.2331 111.584C69.223 111.477 69.2676 111.36 69.1726 111.27C69.0488 110.734 68.7876 110.278 68.3702 109.916V109.914C68.3522 109.885 68.3407 109.85 68.3169 109.828C67.3489 108.911 66.2341 108.671 64.9761 109.113C64.7897 109.179 64.6508 109.223 64.4752 109.041C63.6361 108.168 62.7789 107.312 61.9196 106.459C61.7865 106.327 61.7569 106.252 61.8901 106.095C62.332 105.574 62.7105 105.006 63.0661 104.423C64.4767 102.109 65.259 99.5968 65.4144 96.8929C65.4302 96.6194 65.4943 96.5352 65.7807 96.5367C69.762 96.5467 73.7441 96.5554 77.7254 96.5309C78.3177 96.5273 78.7934 96.5561 78.9453 97.2362C78.9482 97.2477 78.9546 97.2592 78.9625 97.2679C79.1475 97.4557 79.0691 97.5989 78.9208 97.7796C77.5181 99.4924 76.1219 101.211 74.7344 102.937C74.5616 103.151 74.3947 103.262 74.1082 103.219C73.8743 103.184 73.6297 103.198 73.395 103.262C72.4249 103.527 71.8196 104.168 71.6224 105.133C71.4231 106.106 71.7498 106.931 72.5767 107.506C73.403 108.08 74.2716 108.153 75.1619 107.627C76.1327 107.054 76.5847 105.979 76.2594 104.926C76.191 104.705 76.2011 104.559 76.3479 104.388C76.6552 104.031 76.9179 103.628 77.2288 103.283C77.6419 102.826 78.0118 102.337 78.4105 101.87C79.172 100.978 79.9104 100.067 80.6495 99.1549C80.7646 99.0131 80.8568 98.9412 81.0331 99.0419C81.4203 99.2643 81.8535 99.2118 82.2681 99.2046C83.4685 99.183 84.4696 98.7332 85.221 97.7717C86.497 96.1416 86.1623 93.6392 84.5329 92.4165ZM72.6099 70.0025C73.8621 69.9946 74.8308 70.9021 74.8121 72.1443C74.7919 73.5052 73.9787 74.2961 72.6401 74.3292C71.3137 74.3616 70.4227 73.4786 70.4062 72.1709C70.3961 70.9388 71.3403 70.0104 72.6099 70.0025ZM59.8267 70.3393C59.1877 70.3357 58.8033 69.9377 58.7947 69.3015C58.7882 68.8049 59.1877 68.2378 59.862 68.2601C60.4486 68.2788 60.8804 68.7257 60.8804 69.3281C60.8796 69.9319 60.4514 70.3429 59.8267 70.3393ZM25.697 70.7279C25.4328 71.557 24.6836 72.0118 23.8294 71.8456C23.0744 71.6995 22.5238 70.9359 22.6052 70.1471C22.6879 69.3346 23.381 68.7445 24.2381 68.7553C24.3454 68.7567 24.4519 68.7567 24.5598 68.7567C24.657 68.7884 24.7542 68.8193 24.852 68.8503C24.9938 68.9431 25.1356 69.0352 25.2774 69.1281C25.281 69.1957 25.3249 69.2274 25.3846 69.2446C25.666 69.7016 25.8747 70.1687 25.697 70.7279ZM23.9193 81.6017C24.5339 81.6039 24.9787 82.0457 24.9816 82.656C24.9845 83.2735 24.5476 83.7169 23.9323 83.7212C23.3076 83.7255 22.8563 83.2973 22.8456 82.6906C22.834 82.0702 23.2982 81.5995 23.9193 81.6017ZM21.9359 106.515C22.8362 106.507 23.5235 107.175 23.5257 108.061C23.5278 108.933 22.8578 109.626 21.9999 109.639C21.1183 109.653 20.3878 108.941 20.3857 108.065C20.3842 107.195 21.0557 106.523 21.9359 106.515ZM16.3662 97.5989C15.124 97.5889 14.1956 96.6648 14.2057 95.4478C14.2165 94.1984 15.1434 93.2966 16.4108 93.3024C17.6501 93.3081 18.562 94.2214 18.5627 95.4571C18.5627 96.7058 17.6364 97.609 16.3662 97.5989ZM26.0597 119.774C25.4674 119.779 24.983 119.303 24.996 118.712C25.0075 118.178 25.4098 117.644 26.0316 117.696C26.6736 117.699 27.1032 118.117 27.091 118.728C27.0795 119.34 26.6563 119.769 26.0597 119.774ZM60.55 120.096C61.631 120.119 62.2319 120.739 62.2463 121.666C62.26 122.545 61.5914 123.228 60.7372 123.228C59.8332 123.23 59.1517 122.553 59.1502 121.655C59.1488 120.807 59.7836 120.081 60.55 120.096ZM65.6994 111.196C66.0988 111.046 66.617 111.178 66.8754 111.493C67.1186 111.788 67.2201 112.38 66.9401 112.753C66.861 112.859 66.7833 112.959 66.6839 113.044C66.6012 113.098 66.5184 113.151 66.4356 113.205C66.2212 113.22 66.0053 113.256 65.793 113.203C65.328 113.086 65.0488 112.731 65.0251 112.244C64.9991 111.721 65.2215 111.376 65.6994 111.196ZM50.9163 128.365C50.9415 129.249 50.1678 129.97 49.2775 129.944C48.4175 129.92 47.7497 129.202 47.7669 128.321C47.7842 127.434 48.4499 126.794 49.3358 126.813C50.3794 126.821 50.8947 127.585 50.9163 128.365ZM62.2564 97.6946C61.808 100.908 60.3715 103.587 58.0016 105.762C56.0621 107.542 53.7677 108.635 51.161 109.059C49.2171 109.374 47.2891 109.297 45.4049 108.725C40.8723 107.349 37.8144 104.421 36.2728 99.93C35.9727 99.0563 35.7978 98.1517 35.7121 97.2362C35.3624 93.4917 36.3944 90.1538 38.7687 87.2484C40.398 85.2534 42.4758 83.8845 44.9256 83.095C45.2142 83.0022 45.2732 82.8705 45.271 82.5941C45.2581 81.0353 45.2703 79.4772 45.2603 77.9183C45.2588 77.6729 45.2869 77.5664 45.5791 77.5714C46.7299 77.5916 47.8806 77.5794 49.0314 77.5794V77.5772C50.1577 77.5772 51.2848 77.5866 52.4104 77.5714C52.7083 77.5671 52.8148 77.6197 52.8105 77.9558C52.7875 79.5261 52.8069 81.0972 52.7932 82.6676C52.7911 82.9194 52.8832 83.0087 53.1056 83.085C57.8505 84.7251 60.8235 88.0112 62.0599 92.8533C62.4651 94.4388 62.4853 96.0581 62.2564 97.6946ZM82.2623 97.0174C81.3994 97.0325 80.6732 96.3272 80.6704 95.4715C80.6682 94.6302 81.3994 93.8817 82.2285 93.8767C83.0849 93.8717 83.8176 94.5798 83.8291 95.4233C83.8399 96.2488 83.0986 97.003 82.2623 97.0174Z" fill="#272B2D"/>
<path d="M48.7889 107.553C45.3697 107.403 42.4729 106.11 40.1778 103.528C38.6356 101.793 37.7036 99.7616 37.3718 97.4773C37.2019 96.3085 37.1127 95.1138 37.4797 93.9515C37.7647 93.049 38.375 92.7057 39.3063 92.8907C40.2872 93.0857 41.1905 93.4981 42.0987 93.8939C43.6525 94.5712 45.225 95.1887 46.894 95.5377C48.781 95.9321 50.6292 95.7579 52.4572 95.2167C54.0412 94.7482 55.5317 94.0357 57.0581 93.4168C57.5792 93.2059 58.1074 93.0217 58.6609 92.9072C59.7462 92.682 60.4601 93.1505 60.6667 94.2451C60.9689 95.845 60.7948 97.4247 60.3586 98.9677C59.7253 101.21 58.5098 103.106 56.7465 104.637C54.4694 106.616 51.8023 107.537 48.7889 107.553ZM50.1182 97.4434C48.3902 97.5197 47.1473 98.8382 47.2272 100.533C47.2992 102.065 48.6587 103.419 50.4147 103.297C51.9088 103.193 53.2028 101.808 53.1438 100.312C53.0797 98.6827 51.6986 97.3736 50.1182 97.4434ZM58.373 97.7342C58.391 96.8447 57.7195 96.1257 56.8552 96.1106C56.0455 96.0962 55.3359 96.8 55.3151 97.6378C55.2927 98.5165 55.9513 99.2146 56.817 99.2304C57.6627 99.2455 58.3557 98.5798 58.373 97.7349V97.7342ZM44.0598 98.4855C44.0598 97.6881 43.4891 97.1606 42.7831 97.1405C42.1066 97.1203 41.4733 97.7651 41.4639 98.4431C41.4546 99.1433 42.0829 99.7731 42.791 99.7731C43.4812 99.7731 44.0642 99.1808 44.0598 98.4855ZM44.6277 104.233C45.3215 104.239 45.8828 103.666 45.8879 102.949C45.8922 102.329 45.3251 101.756 44.6997 101.746C43.9843 101.736 43.3963 102.294 43.397 102.985C43.397 103.636 43.9814 104.228 44.6284 104.233H44.6277Z" fill="#272B2D"/>
<path d="M52.1549 90.803C51.0085 90.8649 49.5165 89.9106 49.5633 88.0682C49.5972 86.7188 50.7724 85.5515 52.1837 85.5493C53.6324 85.5464 54.8178 86.7418 54.8207 88.2079C54.8228 89.689 53.6879 90.7951 52.1549 90.8038V90.803Z" fill="#272B2D"/>
<path d="M45.5619 89.1382C44.5248 89.1252 43.7137 88.2911 43.7173 87.2404C43.7209 86.2407 44.6119 85.3793 45.6245 85.3972C46.6241 85.4152 47.4849 86.2889 47.4669 87.2699C47.4482 88.3343 46.6148 89.1511 45.5619 89.1389V89.1382Z" fill="#272B2D"/>
<path d="M47.402 94.2395C46.6046 94.2367 45.9669 93.5969 45.9763 92.8088C45.9849 92.0661 46.6348 91.4292 47.3876 91.427C48.1706 91.4248 48.8313 92.056 48.8363 92.811C48.8414 93.6055 48.2023 94.2424 47.4027 94.2395H47.402Z" fill="#272B2D"/>
</svg>
