<?xml version="1.0" encoding="UTF-8"?><svg xmlns="http://www.w3.org/2000/svg" viewBox="0 0 1358.23 1358.23"><defs><style>.h{fill:#fff;}</style></defs><g id="a"/><g id="b"/><g id="c"/><g id="d"><g><g><path class="h" d="M545.35,493.06l-20.13,101.11-39.8-77.45-39.49,77.45-20.28-101.11h-9.07l22.59,111.25c.12,.54,.28,1.03,.51,1.47-.35,1.05-.73,2.2-1.13,3.43-2.64,7.94-7.01,21.23-9.58,25-2.02,2.98-4,5.4-6.05,7.37-2.82,2.73-5.85,3.33-9.28,1.82-1.68-.72-3.46-1.57-4.96-2.61-2.3-1.59-4.76-3.48-7.74-5.96-3.34-2.75-7-5.62-11.3-7.74-3.78-1.86-7.44-2.32-11.2-1.41-5.23,1.28-10.3,3.76-15.47,7.62-.54,.41-1.09,.82-1.61,1.23-1.18,.91-2.3,1.78-3.44,2.5-1.07,.69-2.43,.51-3.27-.43-.62-.68-1.16-1.43-1.84-2.34-4.35-5.98-10.79-8.6-18.55-7.58-7.3,.96-14.49,3.78-21.31,8.4-4.28,2.86-8.17,5.41-12.33,7.39-9.74,4.64-19.14,5.42-28.74,2.37l-2.2-.68-1.46,1.77c-.23,.27-.57,.77-.82,1.43l-.27,2.12c.11,1,.59,2.14,1.7,3.34,.39,.39,.82,.75,1.26,1.12,.13,.09,.27,.2,.52,.45,1.45,1.3,2.93,2.64,4.5,3.92,.91,.72,1.82,1.47,2.71,2.23,2.5,2.04,5.05,4.18,7.85,6.07,7.05,4.78,15.33,8.05,25.32,9.99,10.9,2.16,21,2.18,30.87,.16,7.83-1.64,16.2-3.98,26.3-7.37,3.6-1.21,6.69-2.07,9.56-2.62-8.01,10.9-17.73,21.61-29.49,32.58-2.43-1.96-5.28-3.46-8.78-4.64-10.19-3.48-20.91-4.19-31.83-2.03-4.18,.82-9.05,2.05-13.49,5.07-3.09,2.1-6.19,4.58-8.1,8.42-2.13,4.3-1.18,8.74,2.51,11.56,1.79,1.39,3.93,2.48,5.98,3.07,7.23,2.07,15.04,2.84,23.91,2.32,4.09-.25,7.62-.82,10.81-1.8,6.64-2.04,12.19-5.87,17.33-9.6,.21-.16,.41-.29,.62-.45,.68,1.32,1.25,2.75,1.72,4.34,2.1,7.03,2.39,14.34,.87,21.73-1.71,8.3-4.55,15.22-8.71,21.11-4.1,5.8-9.7,10.15-16.63,12.95-3.92,1.57-8.4,1.86-12.65,2-6.9,.25-14.06-.48-21.25-2.16-6.58-1.55-13.2-4.14-20.8-8.19-11.74-6.24-21.18-13.88-28.87-23.39-5.98-7.39-10.78-16.31-14.67-27.28-3.78-10.58-6.57-22.41-8.58-36.15-2.09-14.51-3.2-29.57-3.43-46.04-.18-13.72,.16-25.07,1.07-35.68,.54-6.18,1.27-13.44,2.7-20.54,2.3-11.4,5.94-22.2,9.51-32.19,5.56-15.54,12.27-30.19,19.93-43.59,4.12-7.21,9.31-13.49,15.84-20.72,5.55-6.15,12.15-10.52,19.56-12.97,3.8-1.25,8.33-2.48,12.9-2,7.1,.75,12.86,3.02,17.54,6.98,7.33,6.17,12.31,14.22,15.24,24.57,2.48,8.71,3.74,18.09,3.8,28.71,.05,3.09-.06,6.28-.18,9.37-.04,1.53-.11,3.03-.13,4.55l-.19,6.81c-.07,3.5-.16,7.03-.25,10.55-.22,7.85-1.86,15.45-3.25,21.21-.59,2.38-1.39,4.75-2.23,7.25-.36,1.03-.7,2.07-1.05,3.12-.5,1.52-.38,2.87,.35,4l.27,.37c.5,.61,1.43,1.39,3.02,1.57,.39,.04,.76,.09,1.14,.16,.96,.13,2.07,.27,3.23,.27,1.41-.02,2.82-.09,4.26-.18,1.84-.09,3.61-.21,5.34-.16,3.12,.04,6.21,.18,9.33,.32,2.02,.09,4.03,.16,6.05,.22,2.14,.12,3.8-1.66,3.94-4.02,.13-2.51-1.64-3.96-3.35-4.1-1.13-.07-2.27-.11-3.41-.13-.66-.03-1.3-.05-1.96-.07-1.29-.05-2.59-.14-3.89-.21-2.59-.13-5.25-.27-7.91-.32-2.16-.02-4.3,.07-6.4,.14-.18,.02-.36,.02-.56,.02,.16-.43,.29-.86,.45-1.32,2.71-8.03,4.37-16.74,4.89-25.89,.43-7.34,.57-14.81,.71-22.02l.09-4.96c.25-11.44-.57-21.66-2.53-31.21-2.82-14.01-8.57-24.91-17.54-33.35-8.1-7.58-17.74-11.13-28.73-10.56-11.08,.57-21.61,5.3-31.24,14.02-6.46,5.84-11.67,12.78-16.35,19.4-4.8,6.78-8.51,14.24-12.08,21.43l-.48,.98c-6.28,12.67-11.15,26.05-15.45,38.61-3.5,10.19-5.94,19.74-7.44,29.23-1.77,11.29-2.71,23.71-2.91,39.15-.09,6.47-.02,12.4,.16,18.18,.29,8.78,.64,15.52,1.09,21.77,1.18,15.56,3.07,28.19,5.92,39.77,2.32,9.44,4.55,17.95,8.37,26.23,2.84,6.19,6.41,13.38,11.35,19.89,7.85,10.41,18.09,19.22,30.44,26.16,8.62,4.87,15.99,7.98,23.2,9.85,7.6,1.98,15.2,2.96,22.66,2.96,1.48,0,2.96-.05,4.44-.12,4.96-.27,10.21-.7,15.15-2.91,7.58-3.39,13.77-8.19,18.43-14.33,3.89-5.08,6.8-10.97,9.21-18.57,3.23-10.21,3.71-20.31,1.41-30.05-.86-3.68-2.2-7.1-4-10.15,.11-.11,.25-.2,.36-.29,1.44-1.23,2.92-2.5,4.33-3.94,1.88-1.95,3.75-3.96,5.61-5.93,2.28-2.46,4.62-4.96,6.99-7.33,2.25-2.25,4.25-4.64,6.19-6.96,1.23-1.46,2.43-2.91,3.71-4.32,2.09-2.32,4.11-4.85,6.21-7.72,.7-.97,1.41-1.98,2.11-2.98l.37-.63c.57-1.37,.63-2.85,.2-4.14l-1.02-1.8c-.84-.98-2.03-1.64-3.39-1.84-1.09-.19-2.12-.14-3.07-.1-5.49,.37-10.72,1.85-15.2,3.19-2,.59-3.98,1.21-5.98,1.8-5.35,1.63-10.88,3.34-16.34,4.77-7.83,2.07-14.33,2.85-20.56,2.44-6.19-.41-12.4-1.48-18.43-3.16-7.51-2.1-14.43-5.78-21.14-11.24-.18-.16-.36-.3-.54-.46,4.34-.07,8.64-.77,12.83-2.09,6.59-2.12,13.08-5.44,19.24-9.92,6.01-4.37,12.47-7.07,19.16-8.05,4.78-.69,8.24,.7,10.85,4.39,.43,.61,.87,1.2,1.34,1.8,4.12,5.32,10.33,6.27,15.84,2.41,.7-.5,1.39-1,2.05-1.55,4.61-3.75,8.71-6.19,12.87-7.6,3.16-1.09,5.05-1.14,6.78-.18,2.82,1.55,5.23,3.02,7.33,4.46,1.04,.73,2.04,1.57,3.09,2.46,.84,.7,1.68,1.41,2.55,2.07,.68,.52,1.34,1.04,2,1.57,2.57,2.02,5.21,4.14,8.51,5.59,2.93,1.28,6.35,2.57,10.35,2.07,4.16-.52,7.9-2.57,11.4-6.21,3.89-4.07,6.69-8.76,9.42-13.28l.36-.62c2.21-3.68,6.99-18.76,9.12-25.73,.29-.32,.54-.69,.76-1.1l35.49-70.53,35.65,70.53c1.13,2.04,2.87,3.07,5.22,3.07,1.44,0,2.67-.36,3.69-1.08,1.02-.71,1.69-1.79,2-3.22l22.43-111.25h-9.06Zm-209.06,215.46l-1.89,1.22c-6.03,3.94-13.04,5.53-22.64,5.1-4.89-.2-10.05-.61-14.85-2.09-1.14-.34-2.28-.91-3.21-1.62-.39-.32-.57-.45-.11-1.27,1.22-2.21,3.18-3.98,6.57-5.92,3.59-2.07,7.76-2.91,11.74-3.55,2.59-.38,5.19-.59,7.83-.59,5.09,0,10.26,.75,15.4,2.25,2.5,.73,4.62,1.69,6.46,2.87-1.68,1.28-3.46,2.41-5.3,3.6Z"/><g><path class="h" d="M591.6,493.05h9.06v113.86h-9.06v-113.86Z"/><path class="h" d="M694.08,562.66h-40.1v44.25h-9.07v-108.33c0-1.74,.56-3.1,1.69-4.07,1.12-.97,2.51-1.46,4.15-1.46h47.48c5.12,0,9.91,.95,14.37,2.84,4.45,1.9,8.35,4.46,11.68,7.68,3.33,3.23,5.94,7.02,7.84,11.37,1.9,4.35,2.84,9.04,2.84,14.06,0,4.51-.77,8.66-2.3,12.45-1.54,3.79-3.69,7.12-6.45,9.99-2.76,2.87-6.02,5.25-9.76,7.14-3.74,1.9-7.81,3.15-12.21,3.76l32.57,44.56h-10.76l-31.96-44.25Zm-40.1-8.76h44.25c3.69,0,7.2-.61,10.53-1.84,3.33-1.23,6.23-2.92,8.68-5.07,2.46-2.15,4.43-4.76,5.92-7.84,1.48-3.07,2.23-6.45,2.23-10.14s-.72-7.17-2.15-10.45c-1.44-3.28-3.38-6.15-5.84-8.6-2.46-2.46-5.35-4.4-8.68-5.84-3.33-1.44-6.89-2.15-10.68-2.15h-44.25v51.94Z"/><path class="h" d="M866.34,554.36h-76.67v43.64h81.44v8.91h-84.67c-1.54,0-2.89-.54-4.07-1.61-1.18-1.08-1.77-2.38-1.77-3.92v-102.8c0-1.74,.56-3.1,1.69-4.07,1.12-.97,2.51-1.46,4.15-1.46h84.67v8.91h-81.44v43.49h76.67v8.91Z"/><path class="h" d="M986.57,497.36c7.32,2.87,13.73,6.84,19.21,11.91,5.48,5.07,9.83,11.06,13.06,17.98,3.23,6.91,4.84,14.47,4.84,22.66s-1.61,15.62-4.84,22.59c-3.23,6.97-7.58,13.01-13.06,18.13-5.48,5.13-11.89,9.12-19.21,11.99-7.32,2.87-15.08,4.3-23.28,4.3h-35.8c-1.54,0-2.89-.54-4.07-1.61-1.18-1.08-1.77-2.38-1.77-3.92v-102.8c0-1.74,.56-3.1,1.69-4.07,1.13-.97,2.51-1.46,4.15-1.46h35.8c8.2,0,15.95,1.44,23.28,4.3Zm-23.28,100.65c6.96,0,13.55-1.2,19.75-3.61,6.2-2.41,11.6-5.76,16.21-10.06,4.61-4.3,8.27-9.4,10.99-15.29,2.71-5.89,4.07-12.27,4.07-19.13s-1.36-13.37-4.07-19.21c-2.72-5.84-6.38-10.88-10.99-15.14-4.61-4.25-10.01-7.58-16.21-9.99-6.2-2.41-12.78-3.61-19.75-3.61h-32.57v96.04h32.57Z"/></g><g><path class="h" d="M427.18,778.4c-2.05,0-3.79-.69-5.23-2.07-1.44-1.38-2.15-3-2.15-4.84v-100.34c0-1.94,.69-3.58,2.08-4.92,1.38-1.33,3.15-2,5.3-2h49.17c4.81,0,9.24,.82,13.29,2.46,4.05,1.64,7.55,3.89,10.53,6.76,2.97,2.87,5.3,6.2,6.99,9.99,1.69,3.79,2.53,7.84,2.53,12.14,0,4.61-1,9.04-2.99,13.29-2,4.25-4.89,7.86-8.68,10.83,5.33,2.87,9.4,6.58,12.21,11.14,2.82,4.56,4.23,9.76,4.23,15.6,0,4.3-.82,8.38-2.46,12.22-1.64,3.84-3.95,7.22-6.91,10.14-2.97,2.92-6.48,5.25-10.53,6.99-4.05,1.74-8.48,2.61-13.29,2.61h-54.09Zm4.76-63h44.41c2.97,0,5.74-.51,8.3-1.54,2.56-1.02,4.79-2.43,6.69-4.23,1.89-1.79,3.38-3.89,4.45-6.3,1.08-2.41,1.62-4.99,1.62-7.76s-.54-5.33-1.62-7.68c-1.08-2.35-2.56-4.43-4.45-6.22-1.9-1.79-4.13-3.2-6.69-4.23-2.56-1.02-5.33-1.54-8.3-1.54h-44.41v39.49Zm49.32,51.32c2.97,0,5.74-.56,8.3-1.69,2.56-1.13,4.76-2.61,6.61-4.46s3.3-3.99,4.38-6.45c1.08-2.46,1.62-5.02,1.62-7.68s-.54-5.33-1.62-7.68c-1.08-2.35-2.53-4.4-4.38-6.15s-4.05-3.1-6.61-4.07c-2.56-.97-5.33-1.46-8.3-1.46h-49.32v39.64h49.32Z"/><path class="h" d="M646.76,727.08h-75.75v39.64h80.52v11.68h-85.28c-2.05,0-3.79-.69-5.23-2.07-1.44-1.38-2.15-3-2.15-4.84v-100.34c0-1.94,.69-3.58,2.07-4.92,1.38-1.33,3.15-2,5.3-2h85.28v11.68h-80.52v39.49h75.75v11.68Z"/><path class="h" d="M686.4,778.4l50.4-111.86c.51-1.12,1.36-2.15,2.53-3.07s2.59-1.38,4.23-1.38c1.84,0,3.3,.38,4.38,1.15,1.08,.77,1.92,1.87,2.53,3.3l49.48,111.86h-13.52l-19.97-44.71h-46.25l-20.28,44.71h-13.52Zm75.44-55.32l-18.28-41.18-18.44,41.18h36.72Z"/><path class="h" d="M840.98,664.23v66.54c0,4.81,1,9.37,2.99,13.67,2,4.3,4.74,8.09,8.22,11.37,3.48,3.28,7.53,5.87,12.14,7.76,4.61,1.9,9.53,2.84,14.75,2.84s10.14-.95,14.75-2.84c4.61-1.9,8.63-4.48,12.06-7.76,3.43-3.28,6.15-7.07,8.14-11.37,2-4.3,3-8.86,3-13.67v-66.54h12.14v66.54c0,6.45-1.28,12.55-3.84,18.28-2.56,5.74-6.07,10.76-10.52,15.06-4.46,4.3-9.76,7.71-15.91,10.22-6.15,2.51-12.75,3.77-19.82,3.77s-13.5-1.28-19.59-3.84c-6.1-2.56-11.42-6.02-15.98-10.37-4.56-4.35-8.14-9.4-10.76-15.13-2.61-5.74-3.92-11.73-3.92-17.98v-66.54h12.14Z"/><path class="h" d="M1012.31,778.4v-102.49h-44.87v-11.68h102.03v11.68h-44.87v102.49h-12.29Z"/><path class="h" d="M1154.76,729.54l40.57-65.3h14.14l-48.71,77.44v36.72h-12.14v-36.72l-48.71-77.44h13.98l40.87,65.3Z"/></g></g><g><path class="h" d="M232.38,825.66c2.03,.79,3.79,1.89,5.31,3.29,1.51,1.4,2.71,3.05,3.61,4.96,.89,1.91,1.33,3.99,1.33,6.26s-.44,4.31-1.33,6.24c-.9,1.92-2.09,3.59-3.61,5-1.51,1.42-3.28,2.52-5.31,3.31-2.02,.79-4.16,1.19-6.42,1.19h-9.89c-.42,0-.8-.15-1.12-.44-.33-.3-.49-.66-.49-1.08v-28.38c0-.48,.16-.85,.47-1.13,.32-.27,.69-.4,1.15-.4h9.89c2.26,0,4.4,.39,6.42,1.19Zm-6.42,27.79c1.92,0,3.74-.33,5.45-1s3.2-1.59,4.47-2.78c1.27-1.19,2.28-2.59,3.03-4.22,.75-1.62,1.12-3.39,1.12-5.28s-.37-3.69-1.12-5.3-1.76-3.01-3.03-4.18-2.76-2.09-4.47-2.76-3.53-1-5.45-1h-9v26.51h9Z"/><path class="h" d="M277.72,841.4h-21.17v12.05h22.49v2.46h-23.38c-.42,0-.8-.15-1.12-.44-.33-.3-.49-.66-.49-1.08v-28.38c0-.48,.16-.85,.47-1.13,.32-.27,.69-.4,1.15-.4h23.38v2.46h-22.49v12.01h21.17v2.46Z"/><path class="h" d="M310.91,825.66c2.03,.79,3.79,1.89,5.31,3.29,1.51,1.4,2.71,3.05,3.61,4.96,.89,1.91,1.33,3.99,1.33,6.26s-.44,4.31-1.33,6.24c-.9,1.92-2.09,3.59-3.61,5-1.51,1.42-3.28,2.52-5.31,3.31-2.02,.79-4.16,1.19-6.42,1.19h-9.89c-.42,0-.8-.15-1.12-.44-.33-.3-.49-.66-.49-1.08v-28.38c0-.48,.16-.85,.47-1.13,.32-.27,.69-.4,1.15-.4h9.89c2.26,0,4.4,.39,6.42,1.19Zm-6.42,27.79c1.92,0,3.74-.33,5.45-1s3.2-1.59,4.47-2.78c1.27-1.19,2.28-2.59,3.03-4.22,.75-1.62,1.12-3.39,1.12-5.28s-.37-3.69-1.12-5.3-1.76-3.01-3.03-4.18-2.76-2.09-4.47-2.76-3.53-1-5.45-1h-9v26.51h9Z"/><path class="h" d="M328.46,824.47h2.5v31.43h-2.5v-31.43Z"/><path class="h" d="M363.71,825.49c2.18,1.05,4.09,2.59,5.73,4.62l.04,.04-1.87,1.57-.04-.08c-1.47-1.78-3.1-3.13-4.88-4.03s-3.86-1.36-6.23-1.36c-1.96,0-3.79,.35-5.52,1.06-1.72,.71-3.24,1.68-4.54,2.91s-2.33,2.68-3.08,4.35c-.74,1.67-1.12,3.47-1.12,5.39s.38,3.7,1.12,5.41c.75,1.71,1.78,3.21,3.08,4.5s2.81,2.3,4.54,3.05c1.73,.75,3.56,1.12,5.52,1.12,2.49,0,4.71-.45,6.66-1.36,1.96-.91,3.65-2.35,5.09-4.33l.26-.38,1.91,1.49-.21,.3c-1.73,2.29-3.73,3.97-6.01,5.03-2.28,1.06-4.85,1.59-7.7,1.59-2.29,0-4.45-.44-6.47-1.32-2.02-.88-3.79-2.06-5.3-3.56-1.51-1.5-2.72-3.24-3.61-5.22-.89-1.98-1.34-4.09-1.34-6.32s.44-4.41,1.32-6.36c.88-1.95,2.08-3.64,3.6-5.07s3.31-2.55,5.32-3.37c2.03-.82,4.18-1.23,6.47-1.23,2.66,0,5.07,.52,7.25,1.57Z"/><path class="h" d="M378.27,855.91l13.79-31.05c.14-.28,.35-.52,.61-.72,.27-.2,.56-.3,.87-.3,.74,0,1.25,.34,1.53,1.02l13.62,31.05h-2.85l-5.56-12.64h-13.53l-5.64,12.64h-2.84Zm21.08-14.8l-5.82-13.15-5.81,13.15h11.63Z"/><path class="h" d="M425.31,855.91v-28.97h-12.52v-2.46h27.62v2.46h-12.56v28.97h-2.54Z"/><path class="h" d="M475.5,841.4h-21.17v12.05h22.49v2.46h-23.38c-.42,0-.8-.15-1.12-.44-.33-.3-.49-.66-.49-1.08v-28.38c0-.48,.16-.85,.47-1.13,.32-.27,.69-.4,1.15-.4h23.38v2.46h-22.49v12.01h21.17v2.46Z"/><path class="h" d="M508.69,825.66c2.03,.79,3.79,1.89,5.31,3.29,1.51,1.4,2.71,3.05,3.61,4.96,.89,1.91,1.33,3.99,1.33,6.26s-.44,4.31-1.33,6.24c-.9,1.92-2.09,3.59-3.61,5-1.51,1.42-3.28,2.52-5.31,3.31-2.02,.79-4.16,1.19-6.42,1.19h-9.89c-.42,0-.8-.15-1.12-.44-.33-.3-.49-.66-.49-1.08v-28.38c0-.48,.16-.85,.47-1.13,.32-.27,.69-.4,1.15-.4h9.89c2.26,0,4.4,.39,6.42,1.19Zm-6.42,27.79c1.92,0,3.74-.33,5.45-1s3.2-1.59,4.47-2.78c1.27-1.19,2.28-2.59,3.03-4.22,.75-1.62,1.12-3.39,1.12-5.28s-.37-3.69-1.12-5.3-1.76-3.01-3.03-4.18-2.76-2.09-4.47-2.76-3.53-1-5.45-1h-9v26.51h9Z"/><path class="h" d="M559.11,855.91v-28.97h-12.52v-2.46h27.62v2.46h-12.56v28.97h-2.54Z"/><path class="h" d="M605.8,825.11c2.02,.82,3.79,1.95,5.3,3.39,1.51,1.44,2.7,3.14,3.56,5.09,.86,1.95,1.29,4.07,1.29,6.36s-.43,4.38-1.29,6.37c-.86,1.98-2.05,3.71-3.56,5.2s-3.28,2.66-5.3,3.52c-2.03,.86-4.2,1.29-6.51,1.29s-4.41-.44-6.43-1.31c-2.03-.88-3.79-2.06-5.31-3.54-1.51-1.49-2.71-3.22-3.6-5.22-.89-1.99-1.34-4.09-1.34-6.3s.44-4.38,1.31-6.34c.88-1.97,2.07-3.67,3.56-5.11,1.5-1.44,3.27-2.57,5.31-3.39,2.04-.82,4.2-1.23,6.49-1.23s4.49,.41,6.51,1.23Zm-12.03,2.12c-1.73,.71-3.24,1.68-4.52,2.93-1.29,1.24-2.3,2.7-3.05,4.37s-1.12,3.48-1.12,5.43,.37,3.7,1.12,5.41c.75,1.71,1.77,3.21,3.05,4.5s2.79,2.31,4.52,3.08c1.72,.76,3.56,1.15,5.51,1.15s3.87-.38,5.58-1.13c1.71-.75,3.21-1.77,4.47-3.05,1.27-1.29,2.27-2.79,2.99-4.5,.73-1.71,1.09-3.53,1.09-5.45s-.36-3.77-1.09-5.45c-.72-1.68-1.72-3.14-2.99-4.37-1.27-1.23-2.77-2.2-4.49-2.91-1.73-.71-3.58-1.06-5.56-1.06s-3.79,.35-5.51,1.06Z"/><path class="h" d="M640.35,824.47h2.5v31.43h-2.5v-31.43Z"/><path class="h" d="M678.36,855.65l-21.64-27.7v27.96h-2.5v-30.42c0-.48,.16-.87,.49-1.19,.32-.31,.73-.47,1.21-.47,.6,0,1.08,.23,1.44,.68l21.6,27.87v-27.91h2.5v30.25c0,.51-.15,.91-.47,1.21-.31,.3-.72,.44-1.23,.44-.54,0-1-.24-1.39-.72Z"/><path class="h" d="M719.6,855.65l-21.64-27.7v27.96h-2.5v-30.42c0-.48,.16-.87,.49-1.19,.32-.31,.73-.47,1.21-.47,.6,0,1.08,.23,1.44,.68l21.6,27.87v-27.91h2.5v30.25c0,.51-.15,.91-.47,1.21-.31,.3-.72,.44-1.23,.44-.54,0-1-.24-1.39-.72Z"/><path class="h" d="M756.87,825.11c2.02,.82,3.79,1.95,5.3,3.39,1.51,1.44,2.7,3.14,3.56,5.09,.86,1.95,1.29,4.07,1.29,6.36s-.43,4.38-1.29,6.37c-.86,1.98-2.05,3.71-3.56,5.2s-3.28,2.66-5.3,3.52c-2.03,.86-4.2,1.29-6.51,1.29s-4.41-.44-6.43-1.31c-2.03-.88-3.79-2.06-5.31-3.54-1.51-1.49-2.71-3.22-3.6-5.22-.89-1.99-1.34-4.09-1.34-6.3s.44-4.38,1.31-6.34,2.07-3.67,3.56-5.11c1.5-1.44,3.27-2.57,5.31-3.39,2.04-.82,4.2-1.23,6.49-1.23s4.49,.41,6.51,1.23Zm-12.03,2.12c-1.73,.71-3.24,1.68-4.52,2.93-1.29,1.24-2.3,2.7-3.05,4.37s-1.12,3.48-1.12,5.43,.37,3.7,1.12,5.41c.75,1.71,1.77,3.21,3.05,4.5s2.79,2.31,4.52,3.08c1.72,.76,3.56,1.15,5.51,1.15s3.87-.38,5.58-1.13c1.71-.75,3.21-1.77,4.47-3.05,1.27-1.29,2.27-2.79,2.99-4.5,.73-1.71,1.09-3.53,1.09-5.45s-.36-3.77-1.09-5.45c-.72-1.68-1.72-3.14-2.99-4.37-1.27-1.23-2.77-2.2-4.49-2.91-1.73-.71-3.58-1.06-5.56-1.06s-3.79,.35-5.51,1.06Z"/><path class="h" d="M773.68,824.47h2.76l12.52,28.08,12.43-28.08h2.76l-13.66,30.88c-.14,.34-.33,.59-.55,.76-.23,.17-.56,.26-.98,.26-.34,0-.62-.1-.85-.3-.23-.2-.42-.44-.56-.72l-13.87-30.88Z"/><path class="h" d="M807.85,855.91l13.79-31.05c.14-.28,.35-.52,.61-.72,.27-.2,.56-.3,.87-.3,.74,0,1.25,.34,1.53,1.02l13.62,31.05h-2.85l-5.56-12.64h-13.53l-5.64,12.64h-2.84Zm21.08-14.8l-5.82-13.15-5.81,13.15h11.63Z"/><path class="h" d="M854.89,855.91v-28.97h-12.52v-2.46h27.62v2.46h-12.56v28.97h-2.54Z"/><path class="h" d="M879.41,824.47h2.5v31.43h-2.5v-31.43Z"/><path class="h" d="M890.69,824.47h2.76l12.52,28.08,12.43-28.08h2.76l-13.66,30.88c-.14,.34-.33,.59-.55,.76-.23,.17-.56,.26-.98,.26-.34,0-.62-.1-.85-.3-.23-.2-.42-.44-.56-.72l-13.87-30.88Z"/><path class="h" d="M954.54,841.4h-21.17v12.05h22.49v2.46h-23.38c-.42,0-.8-.15-1.12-.44-.33-.3-.49-.66-.49-1.08v-28.38c0-.48,.16-.85,.47-1.13,.32-.27,.69-.4,1.15-.4h23.38v2.46h-22.49v12.01h21.17v2.46Z"/><path class="h" d="M990.26,855.91c-.42,0-.8-.15-1.12-.44-.33-.3-.49-.66-.49-1.08v-28.38c0-.48,.16-.85,.47-1.13,.32-.27,.69-.4,1.15-.4h13.75c1.21,0,2.36,.21,3.43,.63,1.08,.43,2.02,1.01,2.82,1.76,.81,.75,1.44,1.64,1.91,2.67s.7,2.16,.7,3.37c0,1.36-.32,2.64-.95,3.86-.64,1.21-1.54,2.22-2.69,3.01,1.58,.74,2.81,1.73,3.67,2.99,.86,1.26,1.29,2.76,1.29,4.52,0,1.19-.22,2.31-.68,3.35-.45,1.05-1.09,1.96-1.89,2.74-.81,.78-1.74,1.39-2.8,1.85s-2.21,.68-3.46,.68h-15.1Zm.89-16.97h12.86c.88,0,1.7-.16,2.46-.47,.76-.31,1.43-.74,2.01-1.27,.58-.54,1.03-1.17,1.36-1.91,.33-.74,.49-1.53,.49-2.38s-.16-1.64-.49-2.38c-.32-.74-.78-1.37-1.36-1.91-.58-.54-1.25-.96-2.01-1.25s-1.58-.44-2.46-.44h-12.86v12.01Zm14.21,14.51c.85,0,1.66-.16,2.44-.49,.78-.32,1.45-.76,2.02-1.32,.56-.55,1.02-1.2,1.36-1.95,.34-.75,.51-1.55,.51-2.4s-.16-1.68-.49-2.4c-.32-.72-.78-1.34-1.36-1.87-.58-.52-1.25-.92-2.01-1.21-.76-.28-1.58-.42-2.46-.42h-14.21v12.05h14.21Z"/><path class="h" d="M1050.12,841.4h-21.17v12.05h22.49v2.46h-23.38c-.42,0-.8-.15-1.12-.44-.33-.3-.49-.66-.49-1.08v-28.38c0-.48,.16-.85,.47-1.13,.32-.27,.69-.4,1.15-.4h23.38v2.46h-22.49v12.01h21.17v2.46Z"/><path class="h" d="M1061.07,855.91l13.79-31.05c.14-.28,.35-.52,.61-.72,.27-.2,.56-.3,.87-.3,.74,0,1.25,.34,1.53,1.02l13.62,31.05h-2.85l-5.56-12.64h-13.53l-5.64,12.64h-2.84Zm21.08-14.8l-5.82-13.15-5.81,13.15h11.63Z"/><path class="h" d="M1101.96,824.47v18.37c0,1.47,.3,2.84,.91,4.11,.61,1.27,1.42,2.38,2.44,3.33,1.02,.95,2.2,1.7,3.53,2.25,1.32,.55,2.73,.83,4.2,.83s2.91-.27,4.25-.83c1.32-.55,2.5-1.3,3.52-2.25,1.02-.95,1.82-2.06,2.42-3.33,.59-1.27,.89-2.64,.89-4.11v-18.37h2.5v18.37c0,1.84-.36,3.55-1.08,5.13-.73,1.58-1.7,2.96-2.93,4.12-1.23,1.16-2.68,2.07-4.33,2.73-1.66,.67-3.4,1-5.24,1s-3.53-.34-5.17-1.02c-1.64-.68-3.09-1.6-4.33-2.78-1.24-1.17-2.23-2.54-2.97-4.11-.73-1.57-1.1-3.26-1.1-5.07v-18.37h2.5Z"/><path class="h" d="M1149.68,855.91v-28.97h-12.52v-2.46h27.62v2.46h-12.56v28.97h-2.54Z"/><path class="h" d="M1187.73,843.31l11.58-18.84h2.93l-13.28,21.38v10.05h-2.5v-10.05l-13.28-21.38h2.88l11.67,18.84Z"/></g></g></g><g id="e"/><g id="f"/><g id="g"/></svg>