<svg id="Calque_1" data-name="Calque 1" xmlns="http://www.w3.org/2000/svg" viewBox="0 0 1358.23 1358.23"><defs><style>.cls-1{fill:#fff;}</style></defs><g id="Primary_Logo" data-name="Primary Logo"><path class="cls-1" d="M516.83,554.2,496.7,655.31l-39.8-77.45-39.49,77.45L397.13,554.2h-9.07l22.59,111.25a6,6,0,0,0,.51,1.47c-.35,1.05-.73,2.2-1.13,3.43-2.64,7.94-7,21.23-9.58,25a45.47,45.47,0,0,1-6.05,7.37c-2.82,2.73-5.85,3.33-9.28,1.82a28.64,28.64,0,0,1-5-2.61c-2.3-1.59-4.76-3.48-7.74-6a58.91,58.91,0,0,0-11.3-7.74,16,16,0,0,0-11.2-1.41,42.58,42.58,0,0,0-15.47,7.62c-.54.41-1.09.82-1.61,1.23-1.18.91-2.3,1.78-3.44,2.5a2.51,2.51,0,0,1-3.27-.43c-.62-.68-1.16-1.43-1.84-2.34-4.35-6-10.79-8.6-18.55-7.58a49.42,49.42,0,0,0-21.31,8.4,99.3,99.3,0,0,1-12.33,7.39c-9.7,4.68-19.06,5.43-28.7,2.43l-2.2-.68-1.46,1.77a5,5,0,0,0-.82,1.43l-.27,2.12a5.94,5.94,0,0,0,1.7,3.34c.39.39.82.75,1.26,1.12a3.17,3.17,0,0,1,.52.45c1.45,1.3,2.93,2.64,4.5,3.92.91.72,1.82,1.47,2.71,2.23,2.5,2,5,4.18,7.85,6.07,7.05,4.78,15.33,8,25.32,10a76.78,76.78,0,0,0,30.87.16,232.59,232.59,0,0,0,26.3-7.37,73.45,73.45,0,0,1,9.56-2.62,235.46,235.46,0,0,1-29.49,32.58,27.85,27.85,0,0,0-8.78-4.64,60.74,60.74,0,0,0-31.83-2c-4.18.82-9.05,2-13.49,5.07-3.09,2.1-6.19,4.58-8.1,8.42-2.13,4.3-1.18,8.74,2.51,11.56a18.17,18.17,0,0,0,6,3.07,70.66,70.66,0,0,0,23.91,2.32,46.11,46.11,0,0,0,10.81-1.8c6.64-2,12.19-5.87,17.33-9.6l.62-.45a24.21,24.21,0,0,1,1.72,4.34,44.08,44.08,0,0,1,.87,21.73,55.05,55.05,0,0,1-8.71,21.11,36.79,36.79,0,0,1-16.63,13c-3.92,1.57-8.4,1.86-12.65,2A80.76,80.76,0,0,1,262,832.38a85.47,85.47,0,0,1-20.8-8.19,91.48,91.48,0,0,1-28.87-23.39c-6-7.39-10.78-16.31-14.67-27.28a187.91,187.91,0,0,1-8.58-36.15,355.78,355.78,0,0,1-3.43-46c-.18-13.72.16-25.07,1.07-35.68a186.77,186.77,0,0,1,2.7-20.54c2.3-11.4,5.94-22.2,9.51-32.19a274.76,274.76,0,0,1,19.93-43.59c4.12-7.21,9.31-13.49,15.84-20.72a45.41,45.41,0,0,1,19.56-13c3.8-1.25,8.33-2.48,12.9-2,7.1.75,12.86,3,17.54,7,7.33,6.17,12.31,14.22,15.24,24.57a105.87,105.87,0,0,1,3.8,28.71c.05,3.09-.06,6.28-.18,9.37,0,1.53-.11,3-.13,4.55l-.19,6.81c-.07,3.5-.16,7-.25,10.55a104.22,104.22,0,0,1-3.25,21.21c-.59,2.38-1.39,4.75-2.23,7.25-.36,1-.7,2.07-1,3.12a4.49,4.49,0,0,0,.35,4l.27.37a4.4,4.4,0,0,0,3,1.57,6.26,6.26,0,0,1,1.14.16,25,25,0,0,0,3.23.27c1.41,0,2.82-.09,4.26-.18,1.84-.09,3.61-.21,5.34-.16,3.12,0,6.21.18,9.33.32,2,.09,4,.16,6.05.22a4,4,0,0,0,3.94-4,3.73,3.73,0,0,0-3.3-4.1h-.05c-1.13-.07-2.27-.11-3.41-.13l-2-.07c-1.29,0-2.59-.14-3.89-.21-2.59-.13-5.25-.27-7.91-.32-2.16,0-4.3.07-6.4.14h-.56c.16-.43.29-.86.45-1.32a98.44,98.44,0,0,0,4.89-25.89c.43-7.34.57-14.81.71-22l.09-5a139,139,0,0,0-2.53-31.21c-2.82-14-8.57-24.91-17.54-33.35a37.73,37.73,0,0,0-28.73-10.56c-11.08.57-21.61,5.3-31.24,14-6.46,5.84-11.67,12.78-16.35,19.4-4.8,6.78-8.51,14.24-12.08,21.43l-.48,1c-6.28,12.67-11.15,26.05-15.45,38.61A171.88,171.88,0,0,0,180.23,639a272.86,272.86,0,0,0-2.91,39.15c-.09,6.47,0,12.4.16,18.18.29,8.78.64,15.52,1.09,21.77a240.53,240.53,0,0,0,5.92,39.77c2.32,9.44,4.55,18,8.37,26.23A105,105,0,0,0,204.21,804a97.38,97.38,0,0,0,30.44,26.16c8.62,4.87,16,8,23.2,9.85a89.8,89.8,0,0,0,22.66,3c1.48,0,3,0,4.44-.12,5-.27,10.21-.7,15.15-2.91a46.59,46.59,0,0,0,18.43-14.33A59,59,0,0,0,327.74,807a55.83,55.83,0,0,0,1.41-30,36,36,0,0,0-4-10.15l.36-.29c1.44-1.23,2.92-2.5,4.33-3.94,1.88-2,3.75-4,5.61-5.93,2.28-2.46,4.62-5,7-7.33a83.31,83.31,0,0,0,6.19-7c1.23-1.46,2.43-2.91,3.71-4.32a98,98,0,0,0,6.21-7.72l2.11-3,.37-.63a6,6,0,0,0,.2-4.14l-1-1.8a5.48,5.48,0,0,0-3.39-1.84,13.72,13.72,0,0,0-3.07-.1,69.24,69.24,0,0,0-15.2,3.19c-2,.59-4,1.21-6,1.8-5.35,1.63-10.88,3.34-16.34,4.77-7.83,2.07-14.33,2.85-20.56,2.44a91.36,91.36,0,0,1-18.43-3.16,57.81,57.81,0,0,1-21.14-11.24l-.54-.46a45,45,0,0,0,12.83-2.09,68.51,68.51,0,0,0,19.24-9.92,43.15,43.15,0,0,1,19.16-8c4.78-.69,8.24.7,10.85,4.39.43.61.87,1.2,1.34,1.8,4.12,5.32,10.33,6.27,15.84,2.41.7-.5,1.39-1,2.05-1.55a41.77,41.77,0,0,1,12.87-7.6c3.16-1.09,5.05-1.14,6.78-.18a82.3,82.3,0,0,1,7.33,4.46c1,.73,2,1.57,3.09,2.46.84.7,1.68,1.41,2.55,2.07.68.52,1.34,1,2,1.57a39.47,39.47,0,0,0,8.51,5.59c2.93,1.28,6.35,2.57,10.35,2.07,4.16-.52,7.9-2.57,11.4-6.21,3.89-4.07,6.69-8.76,9.42-13.28l.36-.62c2.21-3.68,7-18.76,9.12-25.73a5.26,5.26,0,0,0,.76-1.1l35.49-70.53,35.65,70.53a5.59,5.59,0,0,0,5.22,3.07,6.23,6.23,0,0,0,3.69-1.08,5,5,0,0,0,2-3.22L525.89,554.2ZM307.77,769.66l-1.89,1.22c-6,3.94-13,5.53-22.64,5.1a58.68,58.68,0,0,1-14.85-2.09,10.22,10.22,0,0,1-3.21-1.62c-.39-.32-.57-.45-.11-1.27,1.22-2.21,3.18-4,6.57-5.92,3.59-2.07,7.76-2.91,11.74-3.55a54,54,0,0,1,7.83-.59,55,55,0,0,1,15.4,2.25,24.61,24.61,0,0,1,6.46,2.87C311.39,767.34,309.61,768.47,307.77,769.66Z"/><path class="cls-1" d="M563.08,554.2h9.07V668.06h-9.07Z"/><path class="cls-1" d="M665.57,623.81h-40.1v44.25H616.4V559.73a5.08,5.08,0,0,1,1.69-4.07,6.17,6.17,0,0,1,4.15-1.46h47.48a36.33,36.33,0,0,1,14.37,2.8,38.2,38.2,0,0,1,11.68,7.68,35.45,35.45,0,0,1,7.83,11.38,34.75,34.75,0,0,1,2.84,14,32.74,32.74,0,0,1-2.3,12.45,31.09,31.09,0,0,1-6.46,10,35.68,35.68,0,0,1-9.75,7.14,38.64,38.64,0,0,1-12.22,3.77L708.29,668H697.53Zm-40.1-8.76h44.25a30,30,0,0,0,10.52-1.85,27.52,27.52,0,0,0,8.69-5.07,24.4,24.4,0,0,0,5.91-7.83,23,23,0,0,0,2.23-10.15,25.85,25.85,0,0,0-2.15-10.44,27.44,27.44,0,0,0-14.52-14.45,26.86,26.86,0,0,0-10.68-2.15H625.47Z"/><path class="cls-1" d="M837.82,615.51H761.15v43.64h81.44v8.91H757.92a5.88,5.88,0,0,1-4.07-1.61,5.09,5.09,0,0,1-1.77-3.92V559.73a5.11,5.11,0,0,1,1.69-4.07,6.17,6.17,0,0,1,4.15-1.46h84.67v8.91H761.15V606.6h76.67Z"/><path class="cls-1" d="M958.06,558.5a60.63,60.63,0,0,1,19.21,11.91,57.11,57.11,0,0,1,13.06,18,55.33,55.33,0,0,1,0,45.25,57.76,57.76,0,0,1-13.06,18.13,59.74,59.74,0,0,1-19.21,12,63.06,63.06,0,0,1-23.28,4.3H899a5.88,5.88,0,0,1-4.07-1.61,5.09,5.09,0,0,1-1.77-3.92V559.73a5.08,5.08,0,0,1,1.69-4.07A6.17,6.17,0,0,1,899,554.2h35.8A63.36,63.36,0,0,1,958.06,558.5ZM934.78,659.15a54,54,0,0,0,19.75-3.61,50.23,50.23,0,0,0,16.21-10.07,48.45,48.45,0,0,0,11-15.29,47.13,47.13,0,0,0,0-38.33,47.72,47.72,0,0,0-11-15.14,51,51,0,0,0-16.21-10,54.2,54.2,0,0,0-19.75-3.61H902.21v96Z"/><path class="cls-1" d="M398.67,839.55a7.29,7.29,0,0,1-5.23-2.08,6.53,6.53,0,0,1-2.15-4.84V732.29a6.52,6.52,0,0,1,2.08-4.91,7.28,7.28,0,0,1,5.3-2h49.17a35.13,35.13,0,0,1,13.29,2.46,32.59,32.59,0,0,1,10.52,6.76,31.6,31.6,0,0,1,7,10,29.5,29.5,0,0,1,2.53,12.14,31.08,31.08,0,0,1-3,13.3,29.66,29.66,0,0,1-8.69,10.83A31.58,31.58,0,0,1,481.72,792a29,29,0,0,1,4.22,15.59,30.91,30.91,0,0,1-2.45,12.22A31.47,31.47,0,0,1,476.57,830a34.14,34.14,0,0,1-10.52,7,33.19,33.19,0,0,1-13.3,2.62Zm4.76-63h44.41a22.22,22.22,0,0,0,8.3-1.54,20.88,20.88,0,0,0,6.68-4.23,19.69,19.69,0,0,0,4.46-6.3,18.84,18.84,0,0,0,1.61-7.76,18.44,18.44,0,0,0-1.61-7.68,20.06,20.06,0,0,0-4.46-6.22,21.17,21.17,0,0,0-6.68-4.23,22.22,22.22,0,0,0-8.3-1.54H403.43Zm49.32,51.32a20.28,20.28,0,0,0,8.3-1.69,21.36,21.36,0,0,0,6.61-4.46,20.88,20.88,0,0,0,4.38-6.45,18.84,18.84,0,0,0,1.61-7.69A18.32,18.32,0,0,0,472,799.9a19.36,19.36,0,0,0-11-10.22,23.27,23.27,0,0,0-8.3-1.46H403.43v39.65Z"/><path class="cls-1" d="M618.25,788.22H542.49v39.65H623v11.68H537.73a7.29,7.29,0,0,1-5.23-2.08,6.53,6.53,0,0,1-2.15-4.84V732.29a6.52,6.52,0,0,1,2.08-4.91,7.28,7.28,0,0,1,5.3-2H623v11.67H542.49v39.5h75.76Z"/><path class="cls-1" d="M657.89,839.55l50.4-111.87a8.46,8.46,0,0,1,2.53-3.07,6.65,6.65,0,0,1,4.23-1.38,7.44,7.44,0,0,1,4.38,1.15,7.63,7.63,0,0,1,2.53,3.3l49.48,111.87H757.92l-20-44.72H691.69l-20.28,44.72Zm75.44-55.32-18.28-41.18-18.44,41.18Z"/><path class="cls-1" d="M812.47,725.38v66.53a32,32,0,0,0,3,13.68A36.71,36.71,0,0,0,823.69,817a39.49,39.49,0,0,0,12.14,7.76A39.06,39.06,0,0,0,877.39,817a37.35,37.35,0,0,0,8.15-11.37,32.16,32.16,0,0,0,3-13.68V725.38h12.14v66.53a44.47,44.47,0,0,1-3.84,18.29,47.79,47.79,0,0,1-10.53,15.06,49.27,49.27,0,0,1-15.9,10.21,51.59,51.59,0,0,1-19.82,3.77A50.09,50.09,0,0,1,831,835.4,51.81,51.81,0,0,1,815,825a48.43,48.43,0,0,1-10.76-15.13,43,43,0,0,1-3.92-18V725.38Z"/><path class="cls-1" d="M983.8,839.55V737.05H938.93V725.38h102v11.67H996.09v102.5Z"/><path class="cls-1" d="M1126.24,790.68l40.57-65.3H1181l-48.71,77.44v36.73H1120.1V802.82l-48.71-77.44h14Z"/></g></svg>