<svg viewBox="0 0 1358.23 1358.23" xmlns="http://www.w3.org/2000/svg"><g fill="#1799d2"><path d="m516.83 554.2-20.13 101.11-39.8-77.45-39.49 77.45-20.28-101.11h-9.07l22.59 111.25a5.92 5.92 0 0 0 .51 1.47c-.35 1.05-.73 2.2-1.13 3.43-2.64 7.94-7 21.23-9.58 25a45.6 45.6 0 0 1 -6.05 7.37c-2.82 2.73-5.85 3.33-9.28 1.82a28.6 28.6 0 0 1 -5-2.61c-2.3-1.59-4.76-3.48-7.74-6a59 59 0 0 0 -11.3-7.74 16 16 0 0 0 -11.2-1.41 42.69 42.69 0 0 0 -15.47 7.62c-.54.41-1.09.82-1.61 1.23-1.18.91-2.3 1.78-3.44 2.5a2.51 2.51 0 0 1 -3.27-.43c-.62-.68-1.16-1.43-1.84-2.34-4.35-6-10.79-8.6-18.55-7.58a49.47 49.47 0 0 0 -21.31 8.4 99.42 99.42 0 0 1 -12.33 7.39c-9.7 4.68-19.06 5.43-28.7 2.43l-2.2-.68-1.46 1.77a5 5 0 0 0 -.82 1.43l-.27 2.12a5.91 5.91 0 0 0 1.7 3.34c.39.39.82.75 1.26 1.12a3.55 3.55 0 0 1 .52.45c1.45 1.3 2.93 2.64 4.5 3.92.91.72 1.82 1.47 2.71 2.23 2.5 2 5 4.18 7.85 6.07 7.05 4.78 15.33 8 25.32 10a76.83 76.83 0 0 0 30.87.16 230.81 230.81 0 0 0 26.3-7.37 73.59 73.59 0 0 1 9.56-2.62 235.57 235.57 0 0 1 -29.49 32.58 27.8 27.8 0 0 0 -8.78-4.64 60.81 60.81 0 0 0 -31.83-2c-4.18.82-9.05 2-13.49 5.07-3.09 2.1-6.19 4.58-8.1 8.42-2.13 4.3-1.18 8.74 2.51 11.56a18.29 18.29 0 0 0 6 3.07 70.68 70.68 0 0 0 23.91 2.32 46.16 46.16 0 0 0 10.81-1.8c6.64-2 12.19-5.87 17.33-9.6l.62-.45a24.69 24.69 0 0 1 1.72 4.34 44.09 44.09 0 0 1 .87 21.73 55.1 55.1 0 0 1 -8.71 21.11 36.83 36.83 0 0 1 -16.63 12.95c-3.92 1.57-8.4 1.86-12.65 2a80.76 80.76 0 0 1 -21.29-2.22 85.35 85.35 0 0 1 -20.8-8.19 91.32 91.32 0 0 1 -28.87-23.39c-6-7.39-10.78-16.31-14.67-27.28a187.59 187.59 0 0 1 -8.58-36.15 355.22 355.22 0 0 1 -3.43-46c-.18-13.72.16-25.07 1.07-35.68a187.5 187.5 0 0 1 2.7-20.54c2.3-11.4 5.94-22.2 9.51-32.19a274 274 0 0 1 19.93-43.59c4.12-7.21 9.31-13.49 15.84-20.72a45.42 45.42 0 0 1 19.56-13c3.8-1.25 8.33-2.48 12.9-2 7.1.75 12.86 3 17.54 7 7.33 6.17 12.31 14.22 15.24 24.57a105.83 105.83 0 0 1 3.8 28.71c.05 3.09-.06 6.28-.18 9.37 0 1.53-.11 3-.13 4.55l-.19 6.81c-.07 3.5-.16 7-.25 10.55a104 104 0 0 1 -3.25 21.21c-.59 2.38-1.39 4.75-2.23 7.25-.36 1-.7 2.07-1 3.12a4.49 4.49 0 0 0 .35 4l.27.37a4.42 4.42 0 0 0 3 1.57c.39 0 .76.09 1.14.16a23.93 23.93 0 0 0 3.23.27c1.41 0 2.82-.09 4.26-.18 1.84-.09 3.61-.21 5.34-.16 3.12 0 6.21.18 9.33.32 2 .09 4 .16 6.05.22s3.8-1.66 3.94-4a3.72 3.72 0 0 0 -3.35-4.1c-1.13-.07-2.27-.11-3.41-.13l-2-.07c-1.29 0-2.59-.14-3.89-.21-2.59-.13-5.25-.27-7.91-.32-2.16 0-4.3.07-6.4.14a5.06 5.06 0 0 1 -.56 0c.16-.43.29-.86.45-1.32a98.46 98.46 0 0 0 4.89-25.89c.43-7.34.57-14.81.71-22l.09-5a139 139 0 0 0 -2.53-31.21c-2.82-14-8.57-24.91-17.54-33.35a37.74 37.74 0 0 0 -28.73-10.56c-11.08.57-21.61 5.3-31.24 14-6.46 5.84-11.67 12.78-16.35 19.4-4.8 6.78-8.51 14.24-12.08 21.43l-.48 1c-6.28 12.67-11.15 26.05-15.45 38.61a172 172 0 0 0 -7.41 29.22 273 273 0 0 0 -2.91 39.15c-.09 6.47 0 12.4.16 18.18.29 8.78.64 15.52 1.09 21.77a240.1 240.1 0 0 0 5.92 39.77c2.32 9.44 4.55 18 8.37 26.23a105.09 105.09 0 0 0 11.35 19.9 97.5 97.5 0 0 0 30.44 26.16c8.62 4.87 16 8 23.2 9.85a89.84 89.84 0 0 0 22.66 3c1.48 0 3-.05 4.44-.12 5-.27 10.21-.7 15.15-2.91a46.56 46.56 0 0 0 18.43-14.33 58.83 58.83 0 0 0 9.21-18.65 55.84 55.84 0 0 0 1.41-30 36.08 36.08 0 0 0 -4-10.15 4.57 4.57 0 0 1 .36-.29c1.44-1.23 2.92-2.5 4.33-3.94 1.88-2 3.75-4 5.61-5.93 2.28-2.46 4.62-5 7-7.33s4.25-4.64 6.19-7c1.23-1.46 2.43-2.91 3.71-4.32a97.07 97.07 0 0 0 6.21-7.72c.7-1 1.41-2 2.11-3l.37-.63a5.94 5.94 0 0 0 .2-4.14l-1-1.8a5.49 5.49 0 0 0 -3.39-1.84 14 14 0 0 0 -3.07-.1 69.63 69.63 0 0 0 -15.2 3.19c-2 .59-4 1.21-6 1.8-5.35 1.63-10.88 3.34-16.34 4.77-7.83 2.07-14.33 2.85-20.56 2.44a91.38 91.38 0 0 1 -18.43-3.16 57.76 57.76 0 0 1 -21.14-11.24l-.54-.46a45 45 0 0 0 12.83-2.09 68.46 68.46 0 0 0 19.24-9.92 43.09 43.09 0 0 1 19.16-8c4.78-.69 8.24.7 10.85 4.39.43.61.87 1.2 1.34 1.8 4.12 5.32 10.33 6.27 15.84 2.41.7-.5 1.39-1 2.05-1.55a41.77 41.77 0 0 1 12.87-7.6c3.16-1.09 5.05-1.14 6.78-.18 2.82 1.55 5.23 3 7.33 4.46 1 .73 2 1.57 3.09 2.46.84.7 1.68 1.41 2.55 2.07.68.52 1.34 1 2 1.57a39.54 39.54 0 0 0 8.51 5.59c2.93 1.28 6.35 2.57 10.35 2.07 4.16-.52 7.9-2.57 11.4-6.21 3.89-4.07 6.69-8.76 9.42-13.28l.36-.62c2.21-3.68 7-18.76 9.12-25.73a5.5 5.5 0 0 0 .76-1.1l35.49-70.53 35.65 70.53a5.59 5.59 0 0 0 5.22 3.07 6.23 6.23 0 0 0 3.69-1.08 5 5 0 0 0 2-3.22l22.42-111.26zm-209.06 215.46-1.89 1.22c-6 3.94-13 5.53-22.64 5.1a58.8 58.8 0 0 1 -14.85-2.09 10.22 10.22 0 0 1 -3.21-1.62c-.39-.32-.57-.45-.11-1.27 1.22-2.21 3.18-4 6.57-5.92 3.59-2.07 7.76-2.91 11.74-3.55a53.78 53.78 0 0 1 7.83-.59 54.93 54.93 0 0 1 15.4 2.25 24.6 24.6 0 0 1 6.46 2.87c-1.68 1.28-3.46 2.41-5.3 3.6z"/><path d="m563.08 554.2h9.07v113.86h-9.07z"/><path d="m665.57 623.81h-40.1v44.25h-9.07v-108.33a5.08 5.08 0 0 1 1.69-4.07 6.13 6.13 0 0 1 4.15-1.46h47.48a36.45 36.45 0 0 1 14.37 2.8 38.22 38.22 0 0 1 11.68 7.68 35.31 35.31 0 0 1 7.83 11.38 34.73 34.73 0 0 1 2.84 14 32.77 32.77 0 0 1 -2.3 12.45 31.07 31.07 0 0 1 -6.46 10 35.79 35.79 0 0 1 -9.75 7.14 38.63 38.63 0 0 1 -12.22 3.77l32.58 44.56h-10.76zm-40.1-8.76h44.25a30.05 30.05 0 0 0 10.52-1.85 27.58 27.58 0 0 0 8.69-5.07 24.39 24.39 0 0 0 5.91-7.83 23 23 0 0 0 2.23-10.15 25.84 25.84 0 0 0 -2.15-10.44 27.44 27.44 0 0 0 -14.52-14.45 26.78 26.78 0 0 0 -10.68-2.15h-44.25z"/><path d="m837.82 615.51h-76.67v43.64h81.44v8.91h-84.67a5.89 5.89 0 0 1 -4.07-1.61 5.11 5.11 0 0 1 -1.77-3.92v-102.8a5.11 5.11 0 0 1 1.69-4.07 6.15 6.15 0 0 1 4.15-1.46h84.67v8.91h-81.44v43.49h76.67z"/><path d="m958.06 558.5a60.5 60.5 0 0 1 19.21 11.91 57.16 57.16 0 0 1 13.06 18 55.3 55.3 0 0 1 0 45.25 57.79 57.79 0 0 1 -13.06 18.13 59.65 59.65 0 0 1 -19.21 12 63.2 63.2 0 0 1 -23.28 4.3h-35.78a5.86 5.86 0 0 1 -4.07-1.61 5.11 5.11 0 0 1 -1.77-3.92v-102.83a5.08 5.08 0 0 1 1.69-4.07 6.15 6.15 0 0 1 4.15-1.46h35.8a63.2 63.2 0 0 1 23.26 4.3zm-23.28 100.65a54 54 0 0 0 19.75-3.61 50.21 50.21 0 0 0 16.21-10.07 48.45 48.45 0 0 0 11-15.29 47.16 47.16 0 0 0 0-38.33 47.82 47.82 0 0 0 -11-15.14 50.89 50.89 0 0 0 -16.21-10 54.22 54.22 0 0 0 -19.75-3.61h-32.57v96z"/><path d="m398.67 839.55a7.29 7.29 0 0 1 -5.23-2.08 6.52 6.52 0 0 1 -2.15-4.84v-100.34a6.53 6.53 0 0 1 2.08-4.91 7.29 7.29 0 0 1 5.3-2h49.17a35.08 35.08 0 0 1 13.29 2.46 32.5 32.5 0 0 1 10.52 6.76 31.67 31.67 0 0 1 7 10 29.51 29.51 0 0 1 2.53 12.14 31 31 0 0 1 -3 13.3 29.66 29.66 0 0 1 -8.69 10.83 31.52 31.52 0 0 1 12.23 11.13 29 29 0 0 1 4.22 15.59 30.94 30.94 0 0 1 -2.45 12.22 31.37 31.37 0 0 1 -6.92 10.14 34.05 34.05 0 0 1 -10.52 7 33.16 33.16 0 0 1 -13.3 2.62zm4.76-63h44.41a22.27 22.27 0 0 0 8.3-1.54 20.78 20.78 0 0 0 6.68-4.23 19.67 19.67 0 0 0 4.46-6.3 18.85 18.85 0 0 0 1.61-7.76 18.38 18.38 0 0 0 -1.61-7.68 20 20 0 0 0 -4.46-6.22 21.12 21.12 0 0 0 -6.68-4.23 22.27 22.27 0 0 0 -8.3-1.54h-44.41zm49.32 51.32a20.3 20.3 0 0 0 8.3-1.69 21.38 21.38 0 0 0 6.61-4.46 20.92 20.92 0 0 0 4.38-6.45 18.91 18.91 0 0 0 1.61-7.69 18.23 18.23 0 0 0 -1.65-7.68 19.35 19.35 0 0 0 -11-10.22 23.21 23.21 0 0 0 -8.3-1.46h-49.27v39.65z"/><path d="m618.25 788.22h-75.76v39.65h80.51v11.68h-85.27a7.29 7.29 0 0 1 -5.23-2.08 6.52 6.52 0 0 1 -2.15-4.84v-100.34a6.53 6.53 0 0 1 2.08-4.91 7.29 7.29 0 0 1 5.3-2h85.27v11.67h-80.51v39.5h75.76z"/><path d="m657.89 839.55 50.4-111.87a8.39 8.39 0 0 1 2.53-3.07 6.67 6.67 0 0 1 4.23-1.38 7.41 7.41 0 0 1 4.38 1.15 7.57 7.57 0 0 1 2.53 3.3l49.48 111.87h-13.52l-20-44.72h-46.23l-20.28 44.72zm75.44-55.32-18.28-41.18-18.44 41.18z"/><path d="m812.47 725.38v66.53a32 32 0 0 0 3 13.68 36.69 36.69 0 0 0 8.22 11.41 39.39 39.39 0 0 0 12.14 7.76 39.07 39.07 0 0 0 41.56-7.76 37.47 37.47 0 0 0 8.15-11.37 32.19 32.19 0 0 0 3-13.68v-66.57h12.14v66.53a44.37 44.37 0 0 1 -3.84 18.29 47.81 47.81 0 0 1 -10.53 15.06 49.36 49.36 0 0 1 -15.9 10.21 51.73 51.73 0 0 1 -19.82 3.77 50 50 0 0 1 -19.59-3.84 51.85 51.85 0 0 1 -16-10.4 48.43 48.43 0 0 1 -10.76-15.13 43 43 0 0 1 -3.92-18v-66.49z"/><path d="m983.8 839.55v-102.5h-44.87v-11.67h102v11.67h-44.84v102.5z"/><path d="m1126.24 790.68 40.57-65.3h14.19l-48.71 77.44v36.73h-12.19v-36.73l-48.71-77.44h14z"/></g></svg>